<?xml version="1.0" encoding="UTF-8" standalone="no"?><svg xmlns="http://www.w3.org/2000/svg" xmlns:xlink="http://www.w3.org/1999/xlink" contentScriptType="application/ecmascript" contentStyleType="text/css" height="978px" preserveAspectRatio="none" style="width:851px;height:978px;" version="1.1" viewBox="0 0 851 978" width="851px" zoomAndPan="magnify"><defs><filter height="300%" id="f1bhpvggs71mgr" width="300%" x="-1" y="-1"><feGaussianBlur result="blurOut" stdDeviation="2.0"/><feColorMatrix in="blurOut" result="blurOut2" type="matrix" values="0 0 0 0 0 0 0 0 0 0 0 0 0 0 0 0 0 0 .4 0"/><feOffset dx="4.0" dy="4.0" in="blurOut2" result="blurOut3"/><feBlend in="SourceGraphic" in2="blurOut3" mode="normal"/></filter></defs><g><!--class Angehoeriger--><rect fill="#FEFECE" filter="url(#f1bhpvggs71mgr)" height="60.8047" id="Angehoeriger" style="stroke: #A80036; stroke-width: 1.5;" width="129" x="241.5" y="322.5"/><ellipse cx="261.9" cy="338.5" fill="#ADD1B2" rx="11" ry="11" style="stroke: #A80036; stroke-width: 1.0;"/><path d="M264.2438,334.1719 L264.4156,334.25 C264.6344,333.9375 264.8375,333.8438 265.1344,333.8438 C265.4313,333.8438 265.7125,333.9844 265.8688,334.25 C265.9625,334.4063 265.9781,334.5313 265.9781,334.9688 L265.9781,336.3906 C265.9781,336.8125 265.9469,337 265.8375,337.1563 C265.6656,337.375 265.4,337.5156 265.1344,337.5156 C264.9156,337.5156 264.6813,337.4063 264.5406,337.2656 C264.4,337.1406 264.3688,337.0156 264.3063,336.6094 C264.2125,336.2031 264.0406,335.9844 263.5563,335.7031 C263.0875,335.4531 262.4781,335.2969 261.9,335.2969 C260.1656,335.2969 258.9156,336.6094 258.9156,338.3906 L258.9156,339.4844 C258.9156,341.1875 260.2125,342.2813 262.2594,342.2813 C263.025,342.2813 263.7125,342.1563 264.1344,341.8906 C264.3219,341.7969 264.3219,341.7969 264.775,341.3125 C264.9625,341.125 265.1656,341.0469 265.3844,341.0469 C265.8531,341.0469 266.2438,341.4375 266.2438,341.8906 C266.2438,342.2813 265.9156,342.7344 265.3375,343.1406 C264.5875,343.6875 263.4313,343.9844 262.2125,343.9844 C259.3219,343.9844 257.2125,342.0938 257.2125,339.5156 L257.2125,338.3906 C257.2125,335.6719 259.2125,333.5938 261.8375,333.5938 C262.7125,333.5938 263.3063,333.7344 264.2438,334.1719 Z "/><text fill="#000000" font-family="sans-serif" font-size="12" lengthAdjust="spacingAndGlyphs" textLength="85" x="277.1" y="342.6543">Angehoeriger</text><line style="stroke: #A80036; stroke-width: 1.5;" x1="242.5" x2="369.5" y1="354.5" y2="354.5"/><text fill="#000000" font-family="sans-serif" font-size="11" lengthAdjust="spacingAndGlyphs" textLength="117" x="247.5" y="368.7104">-AngehoerigerID : int</text><line style="stroke: #A80036; stroke-width: 1.5;" x1="242.5" x2="369.5" y1="375.3047" y2="375.3047"/><!--class Hilfsangebot--><rect fill="#FEFECE" filter="url(#f1bhpvggs71mgr)" height="112.0234" id="Hilfsangebot" style="stroke: #A80036; stroke-width: 1.5;" width="196" x="208" y="531"/><ellipse cx="262.75" cy="547" fill="#A9DCDF" rx="11" ry="11" style="stroke: #A80036; stroke-width: 1.0;"/><path d="M264.3281,548.8125 L260.2813,548.8125 L259.8906,549.7969 L260.2813,549.7969 C260.7344,549.7969 260.875,549.8281 261.0469,549.9531 C261.2656,550.125 261.3906,550.375 261.3906,550.6563 C261.3906,550.9375 261.25,551.2344 260.9844,551.375 C260.8594,551.4688 260.6406,551.5 260.2813,551.5 L258.0156,551.5 C257.2656,551.5 256.8906,551.2188 256.8906,550.6563 C256.8906,550.3594 257.0469,550.0781 257.2969,549.9219 C257.4531,549.8125 257.6094,549.7969 258.0313,549.7969 L260.6719,543.2813 L259.5938,543.2813 C259.1563,543.2813 258.9844,543.25 258.8125,543.1406 C258.5938,542.9688 258.4531,542.7188 258.4531,542.4375 C258.4531,542.1563 258.6094,541.875 258.8594,541.7031 C259.0156,541.6094 259.1406,541.5938 259.5938,541.5938 L263.2656,541.5938 L266.6563,549.7969 C267.125,549.7969 267.2813,549.8281 267.4531,549.9688 C267.6719,550.125 267.8125,550.375 267.8125,550.6563 C267.8125,550.9375 267.6563,551.2344 267.4063,551.375 C267.2656,551.4688 267.0469,551.5 266.6875,551.5 L264.3281,551.5 C263.9063,551.5 263.7031,551.4531 263.5625,551.3281 C263.3438,551.1719 263.2031,550.9219 263.2031,550.6563 C263.2031,550.3594 263.3594,550.0781 263.6094,549.9219 C263.7656,549.8125 263.875,549.7969 264.3281,549.7969 L264.7188,549.7969 Z M263.625,547.1094 L262.2969,543.8438 L260.9531,547.1094 Z "/><text fill="#000000" font-family="sans-serif" font-size="12" font-style="italic" lengthAdjust="spacingAndGlyphs" textLength="78" x="283.25" y="551.1543">Hilfsangebot</text><line style="stroke: #A80036; stroke-width: 1.5;" x1="209" x2="403" y1="563" y2="563"/><text fill="#000000" font-family="sans-serif" font-size="11" lengthAdjust="spacingAndGlyphs" textLength="111" x="214" y="577.2104">-hilfsangebotID : int</text><text fill="#000000" font-family="sans-serif" font-size="11" lengthAdjust="spacingAndGlyphs" textLength="67" x="214" y="590.0151">-typ : String</text><text fill="#000000" font-family="sans-serif" font-size="11" lengthAdjust="spacingAndGlyphs" textLength="79" x="214" y="602.8198">-uhrzeit : float</text><text fill="#000000" font-family="sans-serif" font-size="11" lengthAdjust="spacingAndGlyphs" textLength="86" x="214" y="615.6245">-datum : String</text><text fill="#000000" font-family="sans-serif" font-size="11" lengthAdjust="spacingAndGlyphs" textLength="184" x="214" y="628.4292">-betreuer : EhrenamtlMitarbeiter</text><line style="stroke: #A80036; stroke-width: 1.5;" x1="209" x2="403" y1="635.0234" y2="635.0234"/><!--class Patient--><rect fill="#FEFECE" filter="url(#f1bhpvggs71mgr)" height="86.4141" id="Patient" style="stroke: #A80036; stroke-width: 1.5;" width="180" x="608.5" y="8"/><ellipse cx="671.75" cy="24" fill="#ADD1B2" rx="11" ry="11" style="stroke: #A80036; stroke-width: 1.0;"/><path d="M674.0938,19.6719 L674.2656,19.75 C674.4844,19.4375 674.6875,19.3438 674.9844,19.3438 C675.2813,19.3438 675.5625,19.4844 675.7188,19.75 C675.8125,19.9063 675.8281,20.0313 675.8281,20.4688 L675.8281,21.8906 C675.8281,22.3125 675.7969,22.5 675.6875,22.6563 C675.5156,22.875 675.25,23.0156 674.9844,23.0156 C674.7656,23.0156 674.5313,22.9063 674.3906,22.7656 C674.25,22.6406 674.2188,22.5156 674.1563,22.1094 C674.0625,21.7031 673.8906,21.4844 673.4063,21.2031 C672.9375,20.9531 672.3281,20.7969 671.75,20.7969 C670.0156,20.7969 668.7656,22.1094 668.7656,23.8906 L668.7656,24.9844 C668.7656,26.6875 670.0625,27.7813 672.1094,27.7813 C672.875,27.7813 673.5625,27.6563 673.9844,27.3906 C674.1719,27.2969 674.1719,27.2969 674.625,26.8125 C674.8125,26.625 675.0156,26.5469 675.2344,26.5469 C675.7031,26.5469 676.0938,26.9375 676.0938,27.3906 C676.0938,27.7813 675.7656,28.2344 675.1875,28.6406 C674.4375,29.1875 673.2813,29.4844 672.0625,29.4844 C669.1719,29.4844 667.0625,27.5938 667.0625,25.0156 L667.0625,23.8906 C667.0625,21.1719 669.0625,19.0938 671.6875,19.0938 C672.5625,19.0938 673.1563,19.2344 674.0938,19.6719 Z "/><text fill="#000000" font-family="sans-serif" font-size="12" lengthAdjust="spacingAndGlyphs" textLength="45" x="692.25" y="28.1543">Patient</text><line style="stroke: #A80036; stroke-width: 1.5;" x1="609.5" x2="787.5" y1="40" y2="40"/><text fill="#000000" font-family="sans-serif" font-size="11" lengthAdjust="spacingAndGlyphs" textLength="80" x="614.5" y="54.2104">-patientID : int</text><text fill="#000000" font-family="sans-serif" font-size="11" lengthAdjust="spacingAndGlyphs" textLength="154" x="614.5" y="67.0151">-isRollstuhlfahrer : boolean</text><text fill="#000000" font-family="sans-serif" font-size="11" lengthAdjust="spacingAndGlyphs" textLength="168" x="614.5" y="79.8198">-Angehoeriger : Angehoeriger</text><line style="stroke: #A80036; stroke-width: 1.5;" x1="609.5" x2="787.5" y1="86.4141" y2="86.4141"/><!--class Warteliste--><rect fill="#FEFECE" filter="url(#f1bhpvggs71mgr)" height="112.0234" id="Warteliste" style="stroke: #A80036; stroke-width: 1.5;" width="260" x="568.5" y="129"/><ellipse cx="662.75" cy="145" fill="#ADD1B2" rx="11" ry="11" style="stroke: #A80036; stroke-width: 1.0;"/><path d="M665.0938,140.6719 L665.2656,140.75 C665.4844,140.4375 665.6875,140.3438 665.9844,140.3438 C666.2813,140.3438 666.5625,140.4844 666.7188,140.75 C666.8125,140.9063 666.8281,141.0313 666.8281,141.4688 L666.8281,142.8906 C666.8281,143.3125 666.7969,143.5 666.6875,143.6563 C666.5156,143.875 666.25,144.0156 665.9844,144.0156 C665.7656,144.0156 665.5313,143.9063 665.3906,143.7656 C665.25,143.6406 665.2188,143.5156 665.1563,143.1094 C665.0625,142.7031 664.8906,142.4844 664.4063,142.2031 C663.9375,141.9531 663.3281,141.7969 662.75,141.7969 C661.0156,141.7969 659.7656,143.1094 659.7656,144.8906 L659.7656,145.9844 C659.7656,147.6875 661.0625,148.7813 663.1094,148.7813 C663.875,148.7813 664.5625,148.6563 664.9844,148.3906 C665.1719,148.2969 665.1719,148.2969 665.625,147.8125 C665.8125,147.625 666.0156,147.5469 666.2344,147.5469 C666.7031,147.5469 667.0938,147.9375 667.0938,148.3906 C667.0938,148.7813 666.7656,149.2344 666.1875,149.6406 C665.4375,150.1875 664.2813,150.4844 663.0625,150.4844 C660.1719,150.4844 658.0625,148.5938 658.0625,146.0156 L658.0625,144.8906 C658.0625,142.1719 660.0625,140.0938 662.6875,140.0938 C663.5625,140.0938 664.1563,140.2344 665.0938,140.6719 Z "/><text fill="#000000" font-family="sans-serif" font-size="12" lengthAdjust="spacingAndGlyphs" textLength="63" x="683.25" y="149.1543">Warteliste</text><line style="stroke: #A80036; stroke-width: 1.5;" x1="569.5" x2="827.5" y1="161" y2="161"/><text fill="#000000" font-family="sans-serif" font-size="11" lengthAdjust="spacingAndGlyphs" textLength="234" x="574.5" y="175.2104">-Gespraechsgruppe : Gespraechsgruppe</text><text fill="#000000" font-family="sans-serif" font-size="11" lengthAdjust="spacingAndGlyphs" textLength="127" x="574.5" y="188.0151">+warteliste : arrayList</text><line style="stroke: #A80036; stroke-width: 1.5;" x1="569.5" x2="827.5" y1="194.6094" y2="194.6094"/><text fill="#000000" font-family="sans-serif" font-size="11" lengthAdjust="spacingAndGlyphs" textLength="72" x="574.5" y="208.8198">+getQueue()</text><text fill="#000000" font-family="sans-serif" font-size="11" lengthAdjust="spacingAndGlyphs" textLength="244" x="574.5" y="221.6245">+enterQueue(Angehoeriger: Angehoeriger)</text><text fill="#000000" font-family="sans-serif" font-size="11" lengthAdjust="spacingAndGlyphs" textLength="248" x="574.5" y="234.4292">+leaveQueue(Angehoeriger : Angehoeriger)</text><!--class Gespraechsgruppe--><rect fill="#FEFECE" filter="url(#f1bhpvggs71mgr)" height="86.4141" id="Gespraechsgruppe" style="stroke: #A80036; stroke-width: 1.5;" width="283" x="557" y="293"/><ellipse cx="634.25" cy="309" fill="#ADD1B2" rx="11" ry="11" style="stroke: #A80036; stroke-width: 1.0;"/><path d="M636.5938,304.6719 L636.7656,304.75 C636.9844,304.4375 637.1875,304.3438 637.4844,304.3438 C637.7813,304.3438 638.0625,304.4844 638.2188,304.75 C638.3125,304.9063 638.3281,305.0313 638.3281,305.4688 L638.3281,306.8906 C638.3281,307.3125 638.2969,307.5 638.1875,307.6563 C638.0156,307.875 637.75,308.0156 637.4844,308.0156 C637.2656,308.0156 637.0313,307.9063 636.8906,307.7656 C636.75,307.6406 636.7188,307.5156 636.6563,307.1094 C636.5625,306.7031 636.3906,306.4844 635.9063,306.2031 C635.4375,305.9531 634.8281,305.7969 634.25,305.7969 C632.5156,305.7969 631.2656,307.1094 631.2656,308.8906 L631.2656,309.9844 C631.2656,311.6875 632.5625,312.7813 634.6094,312.7813 C635.375,312.7813 636.0625,312.6563 636.4844,312.3906 C636.6719,312.2969 636.6719,312.2969 637.125,311.8125 C637.3125,311.625 637.5156,311.5469 637.7344,311.5469 C638.2031,311.5469 638.5938,311.9375 638.5938,312.3906 C638.5938,312.7813 638.2656,313.2344 637.6875,313.6406 C636.9375,314.1875 635.7813,314.4844 634.5625,314.4844 C631.6719,314.4844 629.5625,312.5938 629.5625,310.0156 L629.5625,308.8906 C629.5625,306.1719 631.5625,304.0938 634.1875,304.0938 C635.0625,304.0938 635.6563,304.2344 636.5938,304.6719 Z "/><text fill="#000000" font-family="sans-serif" font-size="12" lengthAdjust="spacingAndGlyphs" textLength="120" x="654.75" y="313.1543">Gespraechsgruppe</text><line style="stroke: #A80036; stroke-width: 1.5;" x1="558" x2="839" y1="325" y2="325"/><text fill="#000000" font-family="sans-serif" font-size="11" lengthAdjust="spacingAndGlyphs" textLength="133" x="563" y="339.2104">+warteliste : Warteliste</text><line style="stroke: #A80036; stroke-width: 1.5;" x1="558" x2="839" y1="345.8047" y2="345.8047"/><text fill="#000000" font-family="sans-serif" font-size="11" lengthAdjust="spacingAndGlyphs" textLength="99" x="563" y="360.0151">+getTeilnehmer()</text><text fill="#000000" font-family="sans-serif" font-size="11" lengthAdjust="spacingAndGlyphs" textLength="271" x="563" y="372.8198">+setTeilnehmer(Angehoeriger : Angehoeriger[])</text><!--class Kinderbetreuung--><rect fill="#FEFECE" filter="url(#f1bhpvggs71mgr)" height="124.8281" id="Kinderbetreuung" style="stroke: #A80036; stroke-width: 1.5;" width="277" x="560" y="414.5"/><ellipse cx="641.75" cy="430.5" fill="#ADD1B2" rx="11" ry="11" style="stroke: #A80036; stroke-width: 1.0;"/><path d="M644.0938,426.1719 L644.2656,426.25 C644.4844,425.9375 644.6875,425.8438 644.9844,425.8438 C645.2813,425.8438 645.5625,425.9844 645.7188,426.25 C645.8125,426.4063 645.8281,426.5313 645.8281,426.9688 L645.8281,428.3906 C645.8281,428.8125 645.7969,429 645.6875,429.1563 C645.5156,429.375 645.25,429.5156 644.9844,429.5156 C644.7656,429.5156 644.5313,429.4063 644.3906,429.2656 C644.25,429.1406 644.2188,429.0156 644.1563,428.6094 C644.0625,428.2031 643.8906,427.9844 643.4063,427.7031 C642.9375,427.4531 642.3281,427.2969 641.75,427.2969 C640.0156,427.2969 638.7656,428.6094 638.7656,430.3906 L638.7656,431.4844 C638.7656,433.1875 640.0625,434.2813 642.1094,434.2813 C642.875,434.2813 643.5625,434.1563 643.9844,433.8906 C644.1719,433.7969 644.1719,433.7969 644.625,433.3125 C644.8125,433.125 645.0156,433.0469 645.2344,433.0469 C645.7031,433.0469 646.0938,433.4375 646.0938,433.8906 C646.0938,434.2813 645.7656,434.7344 645.1875,435.1406 C644.4375,435.6875 643.2813,435.9844 642.0625,435.9844 C639.1719,435.9844 637.0625,434.0938 637.0625,431.5156 L637.0625,430.3906 C637.0625,427.6719 639.0625,425.5938 641.6875,425.5938 C642.5625,425.5938 643.1563,425.7344 644.0938,426.1719 Z "/><text fill="#000000" font-family="sans-serif" font-size="12" lengthAdjust="spacingAndGlyphs" textLength="105" x="662.25" y="434.6543">Kinderbetreuung</text><line style="stroke: #A80036; stroke-width: 1.5;" x1="561" x2="836" y1="446.5" y2="446.5"/><text fill="#000000" font-family="sans-serif" font-size="11" lengthAdjust="spacingAndGlyphs" textLength="194" x="566" y="460.7104">-betreuer : EhrenamtlMitarbeiterId</text><text fill="#000000" font-family="sans-serif" font-size="11" lengthAdjust="spacingAndGlyphs" textLength="127" x="566" y="473.5151">-teilnehmer : arrayList</text><line style="stroke: #A80036; stroke-width: 1.5;" x1="561" x2="836" y1="480.1094" y2="480.1094"/><text fill="#000000" font-family="sans-serif" font-size="11" lengthAdjust="spacingAndGlyphs" textLength="85" x="566" y="494.3198">+getBetreuer()</text><text fill="#000000" font-family="sans-serif" font-size="11" lengthAdjust="spacingAndGlyphs" textLength="99" x="566" y="507.1245">+getTeilnehmer()</text><text fill="#000000" font-family="sans-serif" font-size="11" lengthAdjust="spacingAndGlyphs" textLength="161" x="566" y="519.9292">+addTeilnehmer(kind : Kind)</text><text fill="#000000" font-family="sans-serif" font-size="11" lengthAdjust="spacingAndGlyphs" textLength="265" x="566" y="532.7339">+setBetreuer(betreuer : EhrenamtlMitarbeiter)</text><!--class Fahrdienst--><rect fill="#FEFECE" filter="url(#f1bhpvggs71mgr)" height="73.6094" id="Fahrdienst" style="stroke: #A80036; stroke-width: 1.5;" width="215" x="591" y="575"/><ellipse cx="660.75" cy="591" fill="#ADD1B2" rx="11" ry="11" style="stroke: #A80036; stroke-width: 1.0;"/><path d="M663.0938,586.6719 L663.2656,586.75 C663.4844,586.4375 663.6875,586.3438 663.9844,586.3438 C664.2813,586.3438 664.5625,586.4844 664.7188,586.75 C664.8125,586.9063 664.8281,587.0313 664.8281,587.4688 L664.8281,588.8906 C664.8281,589.3125 664.7969,589.5 664.6875,589.6563 C664.5156,589.875 664.25,590.0156 663.9844,590.0156 C663.7656,590.0156 663.5313,589.9063 663.3906,589.7656 C663.25,589.6406 663.2188,589.5156 663.1563,589.1094 C663.0625,588.7031 662.8906,588.4844 662.4063,588.2031 C661.9375,587.9531 661.3281,587.7969 660.75,587.7969 C659.0156,587.7969 657.7656,589.1094 657.7656,590.8906 L657.7656,591.9844 C657.7656,593.6875 659.0625,594.7813 661.1094,594.7813 C661.875,594.7813 662.5625,594.6563 662.9844,594.3906 C663.1719,594.2969 663.1719,594.2969 663.625,593.8125 C663.8125,593.625 664.0156,593.5469 664.2344,593.5469 C664.7031,593.5469 665.0938,593.9375 665.0938,594.3906 C665.0938,594.7813 664.7656,595.2344 664.1875,595.6406 C663.4375,596.1875 662.2813,596.4844 661.0625,596.4844 C658.1719,596.4844 656.0625,594.5938 656.0625,592.0156 L656.0625,590.8906 C656.0625,588.1719 658.0625,586.0938 660.6875,586.0938 C661.5625,586.0938 662.1563,586.2344 663.0938,586.6719 Z "/><text fill="#000000" font-family="sans-serif" font-size="12" lengthAdjust="spacingAndGlyphs" textLength="67" x="681.25" y="595.1543">Fahrdienst</text><line style="stroke: #A80036; stroke-width: 1.5;" x1="592" x2="805" y1="607" y2="607"/><text fill="#000000" font-family="sans-serif" font-size="11" lengthAdjust="spacingAndGlyphs" textLength="105" x="597" y="621.2104">-treffpunkt : String</text><line style="stroke: #A80036; stroke-width: 1.5;" x1="592" x2="805" y1="627.8047" y2="627.8047"/><text fill="#000000" font-family="sans-serif" font-size="11" lengthAdjust="spacingAndGlyphs" textLength="203" x="597" y="642.0151">-rufeTaxi (uhrzeit : float, ort: String)</text><!--class EhrenamtlMitarbeiter--><rect fill="#FEFECE" filter="url(#f1bhpvggs71mgr)" height="60.8047" id="EhrenamtlMitarbeiter" style="stroke: #A80036; stroke-width: 1.5;" width="172" x="220" y="418.5"/><ellipse cx="238.6" cy="434.5" fill="#ADD1B2" rx="11" ry="11" style="stroke: #A80036; stroke-width: 1.0;"/><path d="M240.9438,430.1719 L241.1156,430.25 C241.3344,429.9375 241.5375,429.8438 241.8344,429.8438 C242.1313,429.8438 242.4125,429.9844 242.5688,430.25 C242.6625,430.4063 242.6781,430.5313 242.6781,430.9688 L242.6781,432.3906 C242.6781,432.8125 242.6469,433 242.5375,433.1563 C242.3656,433.375 242.1,433.5156 241.8344,433.5156 C241.6156,433.5156 241.3813,433.4063 241.2406,433.2656 C241.1,433.1406 241.0688,433.0156 241.0063,432.6094 C240.9125,432.2031 240.7406,431.9844 240.2563,431.7031 C239.7875,431.4531 239.1781,431.2969 238.6,431.2969 C236.8656,431.2969 235.6156,432.6094 235.6156,434.3906 L235.6156,435.4844 C235.6156,437.1875 236.9125,438.2813 238.9594,438.2813 C239.725,438.2813 240.4125,438.1563 240.8344,437.8906 C241.0219,437.7969 241.0219,437.7969 241.475,437.3125 C241.6625,437.125 241.8656,437.0469 242.0844,437.0469 C242.5531,437.0469 242.9438,437.4375 242.9438,437.8906 C242.9438,438.2813 242.6156,438.7344 242.0375,439.1406 C241.2875,439.6875 240.1313,439.9844 238.9125,439.9844 C236.0219,439.9844 233.9125,438.0938 233.9125,435.5156 L233.9125,434.3906 C233.9125,431.6719 235.9125,429.5938 238.5375,429.5938 C239.4125,429.5938 240.0063,429.7344 240.9438,430.1719 Z "/><text fill="#000000" font-family="sans-serif" font-size="12" lengthAdjust="spacingAndGlyphs" textLength="132" x="253.4" y="438.6543">EhrenamtlMitarbeiter</text><line style="stroke: #A80036; stroke-width: 1.5;" x1="221" x2="391" y1="450.5" y2="450.5"/><text fill="#000000" font-family="sans-serif" font-size="11" lengthAdjust="spacingAndGlyphs" textLength="160" x="226" y="464.7104">-ehrenamtlMitarbeiterID : int</text><line style="stroke: #A80036; stroke-width: 1.5;" x1="221" x2="391" y1="471.3047" y2="471.3047"/><!--class Kind--><rect fill="#FEFECE" filter="url(#f1bhpvggs71mgr)" height="60.8047" id="Kind" style="stroke: #A80036; stroke-width: 1.5;" width="76" x="660.5" y="784.5"/><ellipse cx="683.6" cy="800.5" fill="#ADD1B2" rx="11" ry="11" style="stroke: #A80036; stroke-width: 1.0;"/><path d="M685.9438,796.1719 L686.1156,796.25 C686.3344,795.9375 686.5375,795.8438 686.8344,795.8438 C687.1313,795.8438 687.4125,795.9844 687.5688,796.25 C687.6625,796.4063 687.6781,796.5313 687.6781,796.9688 L687.6781,798.3906 C687.6781,798.8125 687.6469,799 687.5375,799.1563 C687.3656,799.375 687.1,799.5156 686.8344,799.5156 C686.6156,799.5156 686.3813,799.4063 686.2406,799.2656 C686.1,799.1406 686.0688,799.0156 686.0063,798.6094 C685.9125,798.2031 685.7406,797.9844 685.2563,797.7031 C684.7875,797.4531 684.1781,797.2969 683.6,797.2969 C681.8656,797.2969 680.6156,798.6094 680.6156,800.3906 L680.6156,801.4844 C680.6156,803.1875 681.9125,804.2813 683.9594,804.2813 C684.725,804.2813 685.4125,804.1563 685.8344,803.8906 C686.0219,803.7969 686.0219,803.7969 686.475,803.3125 C686.6625,803.125 686.8656,803.0469 687.0844,803.0469 C687.5531,803.0469 687.9438,803.4375 687.9438,803.8906 C687.9438,804.2813 687.6156,804.7344 687.0375,805.1406 C686.2875,805.6875 685.1313,805.9844 683.9125,805.9844 C681.0219,805.9844 678.9125,804.0938 678.9125,801.5156 L678.9125,800.3906 C678.9125,797.6719 680.9125,795.5938 683.5375,795.5938 C684.4125,795.5938 685.0063,795.7344 685.9438,796.1719 Z "/><text fill="#000000" font-family="sans-serif" font-size="12" lengthAdjust="spacingAndGlyphs" textLength="26" x="699.4" y="804.6543">Kind</text><line style="stroke: #A80036; stroke-width: 1.5;" x1="661.5" x2="735.5" y1="816.5" y2="816.5"/><text fill="#000000" font-family="sans-serif" font-size="11" lengthAdjust="spacingAndGlyphs" textLength="64" x="666.5" y="830.7104">-kindID : int</text><line style="stroke: #A80036; stroke-width: 1.5;" x1="661.5" x2="735.5" y1="837.3047" y2="837.3047"/><!--class Taxiunternehmen--><rect fill="#FEFECE" filter="url(#f1bhpvggs71mgr)" height="48" id="Taxiunternehmen" style="stroke: #A80036; stroke-width: 1.5;" width="141" x="628" y="701"/><ellipse cx="643" cy="717" fill="#ADD1B2" rx="11" ry="11" style="stroke: #A80036; stroke-width: 1.0;"/><path d="M645.3438,712.6719 L645.5156,712.75 C645.7344,712.4375 645.9375,712.3438 646.2344,712.3438 C646.5313,712.3438 646.8125,712.4844 646.9688,712.75 C647.0625,712.9063 647.0781,713.0313 647.0781,713.4688 L647.0781,714.8906 C647.0781,715.3125 647.0469,715.5 646.9375,715.6563 C646.7656,715.875 646.5,716.0156 646.2344,716.0156 C646.0156,716.0156 645.7813,715.9063 645.6406,715.7656 C645.5,715.6406 645.4688,715.5156 645.4063,715.1094 C645.3125,714.7031 645.1406,714.4844 644.6563,714.2031 C644.1875,713.9531 643.5781,713.7969 643,713.7969 C641.2656,713.7969 640.0156,715.1094 640.0156,716.8906 L640.0156,717.9844 C640.0156,719.6875 641.3125,720.7813 643.3594,720.7813 C644.125,720.7813 644.8125,720.6563 645.2344,720.3906 C645.4219,720.2969 645.4219,720.2969 645.875,719.8125 C646.0625,719.625 646.2656,719.5469 646.4844,719.5469 C646.9531,719.5469 647.3438,719.9375 647.3438,720.3906 C647.3438,720.7813 647.0156,721.2344 646.4375,721.6406 C645.6875,722.1875 644.5313,722.4844 643.3125,722.4844 C640.4219,722.4844 638.3125,720.5938 638.3125,718.0156 L638.3125,716.8906 C638.3125,714.1719 640.3125,712.0938 642.9375,712.0938 C643.8125,712.0938 644.4063,712.2344 645.3438,712.6719 Z "/><text fill="#000000" font-family="sans-serif" font-size="12" lengthAdjust="spacingAndGlyphs" textLength="109" x="657" y="721.1543">Taxiunternehmen</text><line style="stroke: #A80036; stroke-width: 1.5;" x1="629" x2="768" y1="733" y2="733"/><line style="stroke: #A80036; stroke-width: 1.5;" x1="629" x2="768" y1="741" y2="741"/><!--class Fahrt--><rect fill="#FEFECE" filter="url(#f1bhpvggs71mgr)" height="86.4141" id="Fahrt" style="stroke: #A80036; stroke-width: 1.5;" width="211" x="593" y="881"/><ellipse cx="677.75" cy="897" fill="#ADD1B2" rx="11" ry="11" style="stroke: #A80036; stroke-width: 1.0;"/><path d="M680.0938,892.6719 L680.2656,892.75 C680.4844,892.4375 680.6875,892.3438 680.9844,892.3438 C681.2813,892.3438 681.5625,892.4844 681.7188,892.75 C681.8125,892.9063 681.8281,893.0313 681.8281,893.4688 L681.8281,894.8906 C681.8281,895.3125 681.7969,895.5 681.6875,895.6563 C681.5156,895.875 681.25,896.0156 680.9844,896.0156 C680.7656,896.0156 680.5313,895.9063 680.3906,895.7656 C680.25,895.6406 680.2188,895.5156 680.1563,895.1094 C680.0625,894.7031 679.8906,894.4844 679.4063,894.2031 C678.9375,893.9531 678.3281,893.7969 677.75,893.7969 C676.0156,893.7969 674.7656,895.1094 674.7656,896.8906 L674.7656,897.9844 C674.7656,899.6875 676.0625,900.7813 678.1094,900.7813 C678.875,900.7813 679.5625,900.6563 679.9844,900.3906 C680.1719,900.2969 680.1719,900.2969 680.625,899.8125 C680.8125,899.625 681.0156,899.5469 681.2344,899.5469 C681.7031,899.5469 682.0938,899.9375 682.0938,900.3906 C682.0938,900.7813 681.7656,901.2344 681.1875,901.6406 C680.4375,902.1875 679.2813,902.4844 678.0625,902.4844 C675.1719,902.4844 673.0625,900.5938 673.0625,898.0156 L673.0625,896.8906 C673.0625,894.1719 675.0625,892.0938 677.6875,892.0938 C678.5625,892.0938 679.1563,892.2344 680.0938,892.6719 Z "/><text fill="#000000" font-family="sans-serif" font-size="12" lengthAdjust="spacingAndGlyphs" textLength="33" x="698.25" y="901.1543">Fahrt</text><line style="stroke: #A80036; stroke-width: 1.5;" x1="594" x2="803" y1="913" y2="913"/><text fill="#000000" font-family="sans-serif" font-size="11" lengthAdjust="spacingAndGlyphs" textLength="130" x="599" y="927.2104">-passagiere : arrayList</text><line style="stroke: #A80036; stroke-width: 1.5;" x1="594" x2="803" y1="933.8047" y2="933.8047"/><text fill="#000000" font-family="sans-serif" font-size="11" lengthAdjust="spacingAndGlyphs" textLength="99" x="599" y="948.0151">+getPassagiere()</text><text fill="#000000" font-family="sans-serif" font-size="11" lengthAdjust="spacingAndGlyphs" textLength="199" x="599" y="960.8198">+setPassagiere(person : Person[])</text><!--class Person--><rect fill="#FEFECE" filter="url(#f1bhpvggs71mgr)" height="60.8047" id="Person" style="stroke: #A80036; stroke-width: 1.5;" width="94" x="6" y="418.5"/><ellipse cx="30" cy="434.5" fill="#A9DCDF" rx="11" ry="11" style="stroke: #A80036; stroke-width: 1.0;"/><path d="M31.5781,436.3125 L27.5313,436.3125 L27.1406,437.2969 L27.5313,437.2969 C27.9844,437.2969 28.125,437.3281 28.2969,437.4531 C28.5156,437.625 28.6406,437.875 28.6406,438.1563 C28.6406,438.4375 28.5,438.7344 28.2344,438.875 C28.1094,438.9688 27.8906,439 27.5313,439 L25.2656,439 C24.5156,439 24.1406,438.7188 24.1406,438.1563 C24.1406,437.8594 24.2969,437.5781 24.5469,437.4219 C24.7031,437.3125 24.8594,437.2969 25.2813,437.2969 L27.9219,430.7813 L26.8438,430.7813 C26.4063,430.7813 26.2344,430.75 26.0625,430.6406 C25.8438,430.4688 25.7031,430.2188 25.7031,429.9375 C25.7031,429.6563 25.8594,429.375 26.1094,429.2031 C26.2656,429.1094 26.3906,429.0938 26.8438,429.0938 L30.5156,429.0938 L33.9063,437.2969 C34.375,437.2969 34.5313,437.3281 34.7031,437.4688 C34.9219,437.625 35.0625,437.875 35.0625,438.1563 C35.0625,438.4375 34.9063,438.7344 34.6563,438.875 C34.5156,438.9688 34.2969,439 33.9375,439 L31.5781,439 C31.1563,439 30.9531,438.9531 30.8125,438.8281 C30.5938,438.6719 30.4531,438.4219 30.4531,438.1563 C30.4531,437.8594 30.6094,437.5781 30.8594,437.4219 C31.0156,437.3125 31.125,437.2969 31.5781,437.2969 L31.9688,437.2969 Z M30.875,434.6094 L29.5469,431.3438 L28.2031,434.6094 Z "/><text fill="#000000" font-family="sans-serif" font-size="12" font-style="italic" lengthAdjust="spacingAndGlyphs" textLength="42" x="46" y="438.6543">Person</text><line style="stroke: #A80036; stroke-width: 1.5;" x1="7" x2="99" y1="450.5" y2="450.5"/><text fill="#000000" font-family="sans-serif" font-size="11" lengthAdjust="spacingAndGlyphs" textLength="82" x="12" y="464.7104">-name : String</text><line style="stroke: #A80036; stroke-width: 1.5;" x1="7" x2="99" y1="471.3047" y2="471.3047"/><!--link Angehoeriger to Hilfsangebot--><path d="M241.299,377.835 C229.388,384.234 217.676,391.932 208,401 C134.601,469.786 131.428,472.133 155,510.5 C167.384,530.657 186.911,545.701 207.863,556.855 " fill="none" id="Angehoeriger-Hilfsangebot" style="stroke: #A80036; stroke-width: 1.0;"/><text fill="#000000" font-family="sans-serif" font-size="13" lengthAdjust="spacingAndGlyphs" textLength="33" x="131" y="506.5669">nutzt</text><polygon fill="#000000" points="143,515.6328,146,521.6328,149,515.6328,143,515.6328" style="stroke: #000000; stroke-width: 1.0;"/><!--link Angehoeriger to Patient--><path d="M332.201,322.156 C374.327,272.215 463.664,173.004 557,111 C572.796,100.506 590.729,91.194 608.372,83.221 " fill="none" id="Angehoeriger-Patient" style="stroke: #A80036; stroke-width: 1.0;"/><text fill="#000000" font-family="sans-serif" font-size="13" lengthAdjust="spacingAndGlyphs" textLength="69" x="439.5" y="129.0669">gehoert zu</text><polygon fill="#000000" points="511.5,123.0664,517.5,126.0664,511.5,129.0664,511.5,123.0664" style="stroke: #000000; stroke-width: 1.0;"/><text fill="#000000" font-family="sans-serif" font-size="13" lengthAdjust="spacingAndGlyphs" textLength="8" x="328.78" y="311.3483">1</text><text fill="#000000" font-family="sans-serif" font-size="13" lengthAdjust="spacingAndGlyphs" textLength="8" x="592.577" y="98.5656">1</text><!--link Warteliste to Gespraechsgruppe--><path d="M698.5,241.247 C698.5,258.271 698.5,276.694 698.5,292.729 " fill="none" id="Warteliste-Gespraechsgruppe" style="stroke: #A80036; stroke-width: 1.0;"/><text fill="#000000" font-family="sans-serif" font-size="13" lengthAdjust="spacingAndGlyphs" textLength="69" x="646" y="271.5669">gehoert zu</text><polygon fill="#000000" points="676,280.6328,679,286.6328,682,280.6328,676,280.6328" style="stroke: #000000; stroke-width: 1.0;"/><!--link Hilfsangebot to Kinderbetreuung--><path d="M423.545,554.171 C466.336,542.117 515.185,528.356 559.67,515.825 " fill="none" id="Hilfsangebot-Kinderbetreuung" style="stroke: #A80036; stroke-width: 1.0;"/><polygon fill="none" points="425.179,560.983,404.03,559.668,421.383,547.507,425.179,560.983" style="stroke: #A80036; stroke-width: 1.0;"/><!--link Hilfsangebot to Gespraechsgruppe--><path d="M387.308,518.062 C434.697,479.447 496.983,432.144 557,397 C567.671,390.752 579.1,384.761 590.661,379.14 " fill="none" id="Hilfsangebot-Gespraechsgruppe" style="stroke: #A80036; stroke-width: 1.0;"/><polygon fill="none" points="391.725,523.493,371.833,530.795,382.83,512.682,391.725,523.493" style="stroke: #A80036; stroke-width: 1.0;"/><!--link Hilfsangebot to Fahrdienst--><path d="M424.182,594.502 C477.059,597.887 539.082,601.858 590.666,605.16 " fill="none" id="Hilfsangebot-Fahrdienst" style="stroke: #A80036; stroke-width: 1.0;"/><polygon fill="none" points="423.542,601.475,404.03,593.212,424.436,587.504,423.542,601.475" style="stroke: #A80036; stroke-width: 1.0;"/><!--link EhrenamtlMitarbeiter to Hilfsangebot--><path d="M306,479.755 C306,494.807 306,513.409 306,530.87 " fill="none" id="EhrenamtlMitarbeiter-Hilfsangebot" style="stroke: #A80036; stroke-width: 1.0;"/><text fill="#000000" font-family="sans-serif" font-size="13" lengthAdjust="spacingAndGlyphs" textLength="78" x="249" y="509.8169">fuehrt durch</text><polygon fill="#000000" points="283.5,518.8828,286.5,524.8828,289.5,518.8828,283.5,518.8828" style="stroke: #000000; stroke-width: 1.0;"/><!--link EhrenamtlMitarbeiter to Kinderbetreuung--><path d="M392.214,455.11 C441.249,458.626 504.031,463.128 559.897,467.133 " fill="none" id="EhrenamtlMitarbeiter-Kinderbetreuung" style="stroke: #A80036; stroke-width: 1.0;"/><text fill="#000000" font-family="sans-serif" font-size="13" lengthAdjust="spacingAndGlyphs" textLength="23" x="400.0006" y="468.2745">1..*</text><text fill="#000000" font-family="sans-serif" font-size="13" lengthAdjust="spacingAndGlyphs" textLength="8" x="544.0984" y="479.0788">1</text><!--link EhrenamtlMitarbeiter to Kind--><path d="M368.957,479.652 C382.362,488.964 395.153,500.409 404,514 C446.095,578.667 391.828,620.383 434,685 C485.717,764.242 600.838,796.903 660.322,808.882 " fill="none" id="EhrenamtlMitarbeiter-Kind" style="stroke: #A80036; stroke-width: 1.0;"/><text fill="#000000" font-family="sans-serif" font-size="13" lengthAdjust="spacingAndGlyphs" textLength="8" x="372.5642" y="499.2624">1</text><text fill="#000000" font-family="sans-serif" font-size="13" lengthAdjust="spacingAndGlyphs" textLength="24" x="628.6385" y="803.8888">0..4</text><!--link Kinderbetreuung to Kind--><path d="M559.74,504.143 C530.576,516.477 503.293,534.414 485.5,560.5 C430.773,640.737 487.174,699.492 557,767 C584.975,794.046 628.747,805.877 660.199,811.038 " fill="none" id="Kinderbetreuung-Kind" style="stroke: #A80036; stroke-width: 1.0;"/><text fill="#000000" font-family="sans-serif" font-size="13" lengthAdjust="spacingAndGlyphs" textLength="47" x="450.5" y="573.5669">betreut</text><polygon fill="#000000" points="469.5,582.6328,472.5,588.6328,475.5,582.6328,469.5,582.6328" style="stroke: #000000; stroke-width: 1.0;"/><text fill="#000000" font-family="sans-serif" font-size="13" lengthAdjust="spacingAndGlyphs" textLength="8" x="543.9328" y="518.1128">1</text><text fill="#000000" font-family="sans-serif" font-size="13" lengthAdjust="spacingAndGlyphs" textLength="23" x="629.5732" y="823.6718">0..*</text><!--link Fahrdienst to Taxiunternehmen--><path d="M698.5,649.103 C698.5,666.079 698.5,685.714 698.5,700.759 " fill="none" id="Fahrdienst-Taxiunternehmen" style="stroke: #A80036; stroke-width: 1.0;"/><text fill="#000000" font-family="sans-serif" font-size="13" lengthAdjust="spacingAndGlyphs" textLength="67" x="647" y="679.5669">beauftragt</text><polygon fill="#000000" points="676,688.6328,679,694.6328,682,688.6328,676,688.6328" style="stroke: #000000; stroke-width: 1.0;"/><!--link Fahrdienst to Fahrt--><path d="M590.715,606.711 C546.377,610.685 498.766,624.14 470,659.5 C407.927,735.804 486.43,794.479 557,863 C567.46,873.1563 579.879,881.753 592.95,888.9937 " fill="none" id="Fahrdienst-Fahrt" style="stroke: #A80036; stroke-width: 1.0;"/><text fill="#000000" font-family="sans-serif" font-size="13" lengthAdjust="spacingAndGlyphs" textLength="78" x="435" y="672.5669">fuehrt durch</text><polygon fill="#000000" points="469.5,681.6328,472.5,687.6328,475.5,681.6328,469.5,681.6328" style="stroke: #000000; stroke-width: 1.0;"/><!--link Person to Patient--><path d="M90.9393,402.683 C153.234,327.978 286.868,181.814 434,108 C488.386,80.716 555.486,66.443 608.362,59.003 " fill="none" id="Person-Patient" style="stroke: #A80036; stroke-width: 1.0;"/><polygon fill="none" points="96.1667,407.347,78.0543,418.344,85.3554,398.452,96.1667,407.347" style="stroke: #A80036; stroke-width: 1.0;"/><!--link Person to EhrenamtlMitarbeiter--><path d="M120.091,449 C150.647,449 187.311,449 219.905,449 " fill="none" id="Person-EhrenamtlMitarbeiter" style="stroke: #A80036; stroke-width: 1.0;"/><polygon fill="none" points="120.037,456,100.0373,449,120.037,442,120.037,456" style="stroke: #A80036; stroke-width: 1.0;"/><!--link Person to Angehoeriger--><path d="M118.768,424.228 C156.462,409.812 203.787,391.711 241.297,377.364 " fill="none" id="Person-Angehoeriger" style="stroke: #A80036; stroke-width: 1.0;"/><polygon fill="none" points="121.218,430.786,100.0373,431.392,116.217,417.709,121.218,430.786" style="stroke: #A80036; stroke-width: 1.0;"/><!--link Person to Fahrt--><path d="M59.4805,479.67 C72.6692,544.046 112.444,693.526 208,769 C320.974,858.232 486.219,896.5657 592.823,912.7077 " fill="none" id="Person-Fahrt" style="stroke: #A80036; stroke-width: 1.0;"/><text fill="#000000" font-family="sans-serif" font-size="13" lengthAdjust="spacingAndGlyphs" textLength="24" x="34.3938" y="499.2839">1..3</text><text fill="#000000" font-family="sans-serif" font-size="13" lengthAdjust="spacingAndGlyphs" textLength="8" x="577.1113" y="924.4981">1</text><!--link Person to Kind--><path d="M79.6325,497.319 C106.468,544.157 152.409,614.727 208,661 C346.656,776.415 572.237,805.599 660.467,812.756 " fill="none" id="Person-Kind" style="stroke: #A80036; stroke-width: 1.0;"/><polygon fill="none" points="73.453,500.61,69.8158,479.735,85.6771,493.785,73.453,500.61" style="stroke: #A80036; stroke-width: 1.0;"/><!--link Angehoeriger to Gespraechsgruppe--><path d="M370.61,350.231 C420.965,348.039 493.187,344.895 556.945,342.119 " fill="none" id="Angehoeriger-Gespraechsgruppe" style="stroke: #A80036; stroke-width: 1.0;"/><text fill="#000000" font-family="sans-serif" font-size="13" lengthAdjust="spacingAndGlyphs" textLength="65" x="441.5" y="339.0669">nimmt teil</text><polygon fill="#000000" points="509.5,333.0664,515.5,336.0664,509.5,339.0664,509.5,333.0664" style="stroke: #000000; stroke-width: 1.0;"/><text fill="#000000" font-family="sans-serif" font-size="13" lengthAdjust="spacingAndGlyphs" textLength="8" x="378.543" y="362.8639">6</text><text fill="#000000" font-family="sans-serif" font-size="13" lengthAdjust="spacingAndGlyphs" textLength="8" x="540.985" y="354.923">1</text><!--
@startuml

left to right direction
skinparam classAttributeIconSize 0

Angehoeriger - Hilfsangebot : nutzt >
Angehoeriger "1" - - "1" Patient : gehoert zu >

Warteliste - Gespraechsgruppe : gehoert zu >

Hilfsangebot <|- - Kinderbetreuung
Hilfsangebot <|- - Gespraechsgruppe
Hilfsangebot <|- - Fahrdienst

EhrenamtlMitarbeiter - Hilfsangebot : fuehrt durch >
EhrenamtlMitarbeiter "1..*" - - "1" Kinderbetreuung
EhrenamtlMitarbeiter "1" - - "0..4" Kind
Kinderbetreuung "1" - "0..*" Kind : betreut >

Fahrdienst - Taxiunternehmen : beauftragt >
Fahrdienst - Fahrt : fuehrt durch >

Person <|- - Patient
Person <|- - EhrenamtlMitarbeiter
Person <|- - Angehoeriger
Person "1..3" - - "1" Fahrt
Person <|- - Kind

Angehoeriger "6"- - "1" Gespraechsgruppe : nimmt teil >


abstract class Person {
  - name : String
}

class Angehoeriger {
  - AngehoerigerID : int
}

class EhrenamtlMitarbeiter {
  - ehrenamtlMitarbeiterID : int
}

class Patient {
  - patientID : int
  - isRollstuhlfahrer : boolean
  - Angehoeriger : Angehoeriger
}

class Kind {
  - kindID : int
}

abstract class Hilfsangebot {
   - hilfsangebotID : int
   - typ : String
   - uhrzeit : float
   - datum : String
   - betreuer : EhrenamtlMitarbeiter
}

class Fahrdienst {
   - treffpunkt : String
   - rufeTaxi (uhrzeit : float, ort: String)
}

class Kinderbetreuung {
  - betreuer : EhrenamtlMitarbeiterId
  - teilnehmer : arrayList
  + getBetreuer()
  + getTeilnehmer()
  + addTeilnehmer(kind : Kind)
  + setBetreuer(betreuer : EhrenamtlMitarbeiter)
}


class Gespraechsgruppe {
  + getTeilnehmer()
  + setTeilnehmer(Angehoeriger : Angehoeriger[])
  + warteliste : Warteliste
}

class Warteliste {
  - Gespraechsgruppe : Gespraechsgruppe
  + warteliste : arrayList
  + getQueue()
  + enterQueue(Angehoeriger: Angehoeriger)
  + leaveQueue(Angehoeriger : Angehoeriger)
}

class Fahrt {
    - passagiere : arrayList
    + getPassagiere()
    + setPassagiere(person : Person[])
}

class Taxiunternehmen {
}
@enduml

PlantUML version 1.2018.04beta7(Unknown compile time)
(GPL source distribution)
Java Runtime: Java(TM) SE Runtime Environment
JVM: Java HotSpot(TM) 64-Bit Server VM
Java Version: 1.7.0_25-b15
Operating System: Linux
Default Encoding: UTF-8
Language: en
Country: US
--></g></svg>