<?xml version="1.0" encoding="UTF-8" standalone="no"?><svg xmlns="http://www.w3.org/2000/svg" xmlns:xlink="http://www.w3.org/1999/xlink" contentScriptType="application/ecmascript" contentStyleType="text/css" height="825px" preserveAspectRatio="none" style="width:719px;height:825px;" version="1.1" viewBox="0 0 719 825" width="719px" zoomAndPan="magnify"><defs><filter height="300%" id="faa8g55rumnue" width="300%" x="-1" y="-1"><feGaussianBlur result="blurOut" stdDeviation="2.0"/><feColorMatrix in="blurOut" result="blurOut2" type="matrix" values="0 0 0 0 0 0 0 0 0 0 0 0 0 0 0 0 0 0 .4 0"/><feOffset dx="4.0" dy="4.0" in="blurOut2" result="blurOut3"/><feBlend in="SourceGraphic" in2="blurOut3" mode="normal"/></filter></defs><g><text fill="#000000" font-family="sans-serif" font-size="18" lengthAdjust="spacingAndGlyphs" textLength="373" x="176.5" y="16.708">Analysemodell "Multimediales Lehrmodul"</text><rect fill="#FEFECE" filter="url(#faa8g55rumnue)" height="33.9688" style="stroke: #A80036; stroke-width: 1.5;" width="79" x="460" y="28.9531"/><text fill="#000000" font-family="sans-serif" font-size="12" lengthAdjust="spacingAndGlyphs" textLength="65" x="467" y="42.0918">Lehrmodul</text><line style="stroke: #A80036; stroke-width: 1.5;" x1="461" x2="538" y1="46.9219" y2="46.9219"/><rect fill="#FEFECE" filter="url(#faa8g55rumnue)" height="33.9688" style="stroke: #A80036; stroke-width: 1.5;" width="65" x="298" y="122.9531"/><text fill="#000000" font-family="sans-serif" font-size="12" lengthAdjust="spacingAndGlyphs" textLength="51" x="305" y="136.0918">Lehrtext</text><line style="stroke: #A80036; stroke-width: 1.5;" x1="299" x2="362" y1="140.9219" y2="140.9219"/><rect fill="#FEFECE" filter="url(#faa8g55rumnue)" height="33.9688" style="stroke: #A80036; stroke-width: 1.5;" width="56" x="302.5" y="216.9531"/><text fill="#000000" font-family="sans-serif" font-size="12" lengthAdjust="spacingAndGlyphs" textLength="42" x="309.5" y="230.0918">Kapitel</text><line style="stroke: #A80036; stroke-width: 1.5;" x1="303.5" x2="357.5" y1="234.9219" y2="234.9219"/><rect fill="#FEFECE" filter="url(#faa8g55rumnue)" height="33.9688" style="stroke: #A80036; stroke-width: 1.5;" width="91" x="186" y="310.9531"/><text fill="#000000" font-family="sans-serif" font-size="12" lengthAdjust="spacingAndGlyphs" textLength="77" x="193" y="324.0918">Unterkapitel</text><line style="stroke: #A80036; stroke-width: 1.5;" x1="187" x2="276" y1="328.9219" y2="328.9219"/><rect fill="#FEFECE" filter="url(#faa8g55rumnue)" height="33.9688" style="stroke: #A80036; stroke-width: 1.5;" width="130" x="428.5" y="310.9531"/><text fill="#000000" font-family="sans-serif" font-size="12" lengthAdjust="spacingAndGlyphs" textLength="116" x="435.5" y="324.0918">Übungsverzeichnis</text><line style="stroke: #A80036; stroke-width: 1.5;" x1="429.5" x2="557.5" y1="328.9219" y2="328.9219"/><rect fill="#FEFECE" filter="url(#faa8g55rumnue)" height="33.9688" style="stroke: #A80036; stroke-width: 1.5;" width="46" x="208.5" y="404.9531"/><text fill="#000000" font-family="sans-serif" font-size="12" lengthAdjust="spacingAndGlyphs" textLength="32" x="215.5" y="418.0918">Seite</text><line style="stroke: #A80036; stroke-width: 1.5;" x1="209.5" x2="253.5" y1="422.9219" y2="422.9219"/><rect fill="#FEFECE" filter="url(#faa8g55rumnue)" height="33.9688" style="stroke: #A80036; stroke-width: 1.5;" width="40" x="138.5" y="498.9531"/><text fill="#000000" font-family="sans-serif" font-size="12" lengthAdjust="spacingAndGlyphs" textLength="26" x="145.5" y="512.0918">Text</text><line style="stroke: #A80036; stroke-width: 1.5;" x1="139.5" x2="177.5" y1="516.9219" y2="516.9219"/><rect fill="#FEFECE" filter="url(#faa8g55rumnue)" height="33.9688" style="stroke: #A80036; stroke-width: 1.5;" width="101" x="310" y="498.9531"/><text fill="#000000" font-family="sans-serif" font-size="12" lengthAdjust="spacingAndGlyphs" textLength="87" x="317" y="512.0918">Visualisierung</text><line style="stroke: #A80036; stroke-width: 1.5;" x1="311" x2="410" y1="516.9219" y2="516.9219"/><rect fill="#FEFECE" filter="url(#faa8g55rumnue)" height="33.9688" style="stroke: #A80036; stroke-width: 1.5;" width="50" x="359.5" y="592.9531"/><text fill="#000000" font-family="sans-serif" font-size="12" lengthAdjust="spacingAndGlyphs" textLength="36" x="366.5" y="606.0918">Grafik</text><line style="stroke: #A80036; stroke-width: 1.5;" x1="360.5" x2="408.5" y1="610.9219" y2="610.9219"/><rect fill="#FEFECE" filter="url(#faa8g55rumnue)" height="33.9688" style="stroke: #A80036; stroke-width: 1.5;" width="76" x="444.5" y="592.9531"/><text fill="#000000" font-family="sans-serif" font-size="12" lengthAdjust="spacingAndGlyphs" textLength="62" x="451.5" y="606.0918">Animation</text><line style="stroke: #A80036; stroke-width: 1.5;" x1="445.5" x2="519.5" y1="610.9219" y2="610.9219"/><rect fill="#FEFECE" filter="url(#faa8g55rumnue)" height="33.9688" style="stroke: #A80036; stroke-width: 1.5;" width="100" x="224.5" y="592.9531"/><text fill="#000000" font-family="sans-serif" font-size="12" lengthAdjust="spacingAndGlyphs" textLength="86" x="231.5" y="606.0918">RollOverGrafik</text><line style="stroke: #A80036; stroke-width: 1.5;" x1="225.5" x2="323.5" y1="610.9219" y2="610.9219"/><rect fill="#FEFECE" filter="url(#faa8g55rumnue)" height="33.9688" style="stroke: #A80036; stroke-width: 1.5;" width="62" x="127.5" y="592.9531"/><text fill="#000000" font-family="sans-serif" font-size="12" lengthAdjust="spacingAndGlyphs" textLength="48" x="134.5" y="606.0918">Verweis</text><line style="stroke: #A80036; stroke-width: 1.5;" x1="128.5" x2="188.5" y1="610.9219" y2="610.9219"/><rect fill="#FEFECE" filter="url(#faa8g55rumnue)" height="33.9688" style="stroke: #A80036; stroke-width: 1.5;" width="61" x="6" y="404.9531"/><text fill="#000000" font-family="sans-serif" font-size="12" lengthAdjust="spacingAndGlyphs" textLength="47" x="13" y="418.0918">Glossar</text><line style="stroke: #A80036; stroke-width: 1.5;" x1="7" x2="66" y1="422.9219" y2="422.9219"/><rect fill="#FEFECE" filter="url(#faa8g55rumnue)" height="33.9688" style="stroke: #A80036; stroke-width: 1.5;" width="119" x="15" y="686.9531"/><text fill="#000000" font-family="sans-serif" font-size="12" lengthAdjust="spacingAndGlyphs" textLength="105" x="22" y="700.0918">Begriffsdefinition</text><line style="stroke: #A80036; stroke-width: 1.5;" x1="16" x2="133" y1="704.9219" y2="704.9219"/><rect fill="#FEFECE" filter="url(#faa8g55rumnue)" height="33.9688" style="stroke: #A80036; stroke-width: 1.5;" width="143" x="428" y="122.9531"/><text fill="#000000" font-family="sans-serif" font-size="12" lengthAdjust="spacingAndGlyphs" textLength="129" x="435" y="136.0918">Informationsmaterial</text><line style="stroke: #A80036; stroke-width: 1.5;" x1="429" x2="570" y1="140.9219" y2="140.9219"/><rect fill="#FEFECE" filter="url(#faa8g55rumnue)" height="33.9688" style="stroke: #A80036; stroke-width: 1.5;" width="81" x="627" y="592.9531"/><text fill="#000000" font-family="sans-serif" font-size="12" lengthAdjust="spacingAndGlyphs" textLength="67" x="634" y="606.0918">Übungsteil</text><line style="stroke: #A80036; stroke-width: 1.5;" x1="628" x2="707" y1="610.9219" y2="610.9219"/><rect fill="#FEFECE" filter="url(#faa8g55rumnue)" height="33.9688" style="stroke: #A80036; stroke-width: 1.5;" width="55" x="546" y="686.9531"/><text fill="#000000" font-family="sans-serif" font-size="12" lengthAdjust="spacingAndGlyphs" textLength="41" x="553" y="700.0918">Übung</text><line style="stroke: #A80036; stroke-width: 1.5;" x1="547" x2="600" y1="704.9219" y2="704.9219"/><rect fill="#FEFECE" filter="url(#faa8g55rumnue)" height="33.9688" style="stroke: #A80036; stroke-width: 1.5;" width="78" x="628.5" y="780.9531"/><text fill="#000000" font-family="sans-serif" font-size="12" lengthAdjust="spacingAndGlyphs" textLength="64" x="635.5" y="794.0918">Selbsttest</text><line style="stroke: #A80036; stroke-width: 1.5;" x1="629.5" x2="705.5" y1="798.9219" y2="798.9219"/><rect fill="#FEFECE" filter="url(#faa8g55rumnue)" height="33.9688" style="stroke: #A80036; stroke-width: 1.5;" width="112" x="481.5" y="780.9531"/><text fill="#000000" font-family="sans-serif" font-size="12" lengthAdjust="spacingAndGlyphs" textLength="98" x="488.5" y="794.0918">Einsendeübung</text><line style="stroke: #A80036; stroke-width: 1.5;" x1="482.5" x2="592.5" y1="798.9219" y2="798.9219"/><rect fill="#FEFECE" filter="url(#faa8g55rumnue)" height="33.9688" style="stroke: #A80036; stroke-width: 1.5;" width="59" x="638" y="686.9531"/><text fill="#000000" font-family="sans-serif" font-size="12" lengthAdjust="spacingAndGlyphs" textLength="45" x="645" y="700.0918">Lösung</text><line style="stroke: #A80036; stroke-width: 1.5;" x1="639" x2="696" y1="704.9219" y2="704.9219"/><!--link Lehrmodul to Lehrtext--><path d="M458.566,69.2371 C428.184,85.7761 387.46,107.9451 360.167,122.8031 " fill="none" id="Lehrmodul-Lehrtext" style="stroke: #A80036; stroke-width: 1.0;"/><polygon fill="#A80036" points="470.062,62.9781,462.8797,62.3339,459.5227,68.7159,466.7049,69.3601,470.062,62.9781" style="stroke: #A80036; stroke-width: 1.0;"/><text fill="#000000" font-family="sans-serif" font-size="13" lengthAdjust="spacingAndGlyphs" textLength="8" x="451.4036" y="82.8885">1</text><text fill="#000000" font-family="sans-serif" font-size="13" lengthAdjust="spacingAndGlyphs" textLength="8" x="360.3484" y="112.039">1</text><!--link Lehrmodul to Informationsmaterial--><path d="M499.5,76.0901 C499.5,91.5331 499.5,109.9181 499.5,122.8031 " fill="none" id="Lehrmodul-Informationsmaterial" style="stroke: #A80036; stroke-width: 1.0;"/><polygon fill="#A80036" points="499.5,62.9781,495.5,68.9781,499.5,74.9781,503.5,68.9781,499.5,62.9781" style="stroke: #A80036; stroke-width: 1.0;"/><text fill="#000000" font-family="sans-serif" font-size="13" lengthAdjust="spacingAndGlyphs" textLength="8" x="490.225" y="82.8885">1</text><text fill="#000000" font-family="sans-serif" font-size="13" lengthAdjust="spacingAndGlyphs" textLength="8" x="490.225" y="112.039">1</text><!--link Lehrmodul to Übungsteil--><path d="M538.551,70.2641 C584.759,101.1501 655.5,160.2981 655.5,232.9531 C655.5,232.9531 655.5,232.9531 655.5,422.9531 C655.5,485.7291 662.391,560.1761 665.729,592.5541 " fill="none" id="Lehrmodul-Übungsteil" style="stroke: #A80036; stroke-width: 1.0;"/><polygon fill="#A80036" points="527.39,63.0301,530.2499,69.6499,537.4604,69.556,534.6005,62.9363,527.39,63.0301" style="stroke: #A80036; stroke-width: 1.0;"/><text fill="#000000" font-family="sans-serif" font-size="13" lengthAdjust="spacingAndGlyphs" textLength="8" x="527.0049" y="82.9571">1</text><text fill="#000000" font-family="sans-serif" font-size="13" lengthAdjust="spacingAndGlyphs" textLength="8" x="655.9616" y="582.0208">1</text><!--link Übungsteil to Übung--><path d="M641.528,636.3721 C625.056,652.4941 604.241,672.8661 590.001,686.8031 " fill="none" id="Übungsteil-Übung" style="stroke: #A80036; stroke-width: 1.0;"/><polygon fill="#A80036" points="651.126,626.9781,644.0401,628.3159,642.5496,635.3713,649.6355,634.0335,651.126,626.9781" style="stroke: #A80036; stroke-width: 1.0;"/><text fill="#000000" font-family="sans-serif" font-size="13" lengthAdjust="spacingAndGlyphs" textLength="8" x="636.6318" y="646.8885">1</text><text fill="#000000" font-family="sans-serif" font-size="13" lengthAdjust="spacingAndGlyphs" textLength="23" x="598.9263" y="676.039">1..*</text><!--link Übungsteil to Lösung--><path d="M667.5,640.0901 C667.5,655.5331 667.5,673.9181 667.5,686.8031 " fill="none" id="Übungsteil-Lösung" style="stroke: #A80036; stroke-width: 1.0;"/><polygon fill="#A80036" points="667.5,626.9781,663.5,632.9781,667.5,638.9781,671.5,632.9781,667.5,626.9781" style="stroke: #A80036; stroke-width: 1.0;"/><text fill="#000000" font-family="sans-serif" font-size="13" lengthAdjust="spacingAndGlyphs" textLength="8" x="658.225" y="646.8885">1</text><text fill="#000000" font-family="sans-serif" font-size="13" lengthAdjust="spacingAndGlyphs" textLength="23" x="640.8344" y="676.039">1..*</text><!--link Übung to Einsendeübung--><path d="M559.833,739.88 C554.326,753.9527 548.244,769.4954 543.82,780.8029 " fill="none" id="Übung-Einsendeübung" style="stroke: #A80036; stroke-width: 1.0;"/><polygon fill="none" points="553.423,737.0523,567.229,720.9783,566.46,742.154,553.423,737.0523" style="stroke: #A80036; stroke-width: 1.0;"/><text fill="#000000" font-family="sans-serif" font-size="13" lengthAdjust="spacingAndGlyphs" textLength="8" x="555.9551" y="740.8888">1</text><text fill="#000000" font-family="sans-serif" font-size="13" lengthAdjust="spacingAndGlyphs" textLength="8" x="536.5595" y="770.0387">1</text><!--link Übung to Selbsttest--><path d="M604.24,735.0395 C619.813,750.2809 638.102,768.1806 650.999,780.8029 " fill="none" id="Übung-Selbsttest" style="stroke: #A80036; stroke-width: 1.0;"/><polygon fill="none" points="599.271,739.9703,589.874,720.9783,609.063,729.9649,599.271,739.9703" style="stroke: #A80036; stroke-width: 1.0;"/><text fill="#000000" font-family="sans-serif" font-size="13" lengthAdjust="spacingAndGlyphs" textLength="8" x="585.8182" y="740.8888">1</text><text fill="#000000" font-family="sans-serif" font-size="13" lengthAdjust="spacingAndGlyphs" textLength="8" x="636.4643" y="770.0387">1</text><!--link Lösung to Selbsttest--><path d="M667.5,720.9783 C667.5,737.7613 667.5,763.9732 667.5,780.8029 " fill="none" id="Lösung-Selbsttest" style="stroke: #A80036; stroke-width: 1.0;"/><text fill="#000000" font-family="sans-serif" font-size="13" lengthAdjust="spacingAndGlyphs" textLength="8" x="658.225" y="740.8888">1</text><text fill="#000000" font-family="sans-serif" font-size="13" lengthAdjust="spacingAndGlyphs" textLength="8" x="658.225" y="770.0387">1</text><!--link Lehrtext to Kapitel--><path d="M330.5,170.0901 C330.5,185.5331 330.5,203.9181 330.5,216.8031 " fill="none" id="Lehrtext-Kapitel" style="stroke: #A80036; stroke-width: 1.0;"/><polygon fill="#A80036" points="330.5,156.9781,326.5,162.9781,330.5,168.9781,334.5,162.9781,330.5,156.9781" style="stroke: #A80036; stroke-width: 1.0;"/><text fill="#000000" font-family="sans-serif" font-size="13" lengthAdjust="spacingAndGlyphs" textLength="8" x="321.225" y="176.8885">1</text><text fill="#000000" font-family="sans-serif" font-size="13" lengthAdjust="spacingAndGlyphs" textLength="23" x="303.8344" y="206.039">1..*</text><!--link Lehrtext to Glossar--><path d="M304,166.1911 C244.729,222.6401 102.8044,357.8061 53.6246,404.6441 " fill="none" id="Lehrtext-Glossar" style="stroke: #A80036; stroke-width: 1.0;"/><polygon fill="#A80036" points="313.423,157.2171,306.3195,158.4584,304.7332,165.4929,311.8367,164.2516,313.423,157.2171" style="stroke: #A80036; stroke-width: 1.0;"/><text fill="#000000" font-family="sans-serif" font-size="13" lengthAdjust="spacingAndGlyphs" textLength="8" x="298.9682" y="176.8931">1</text><text fill="#000000" font-family="sans-serif" font-size="13" lengthAdjust="spacingAndGlyphs" textLength="8" x="49.8081" y="393.8293">1</text><!--link Glossar to Begriffsdefinition--><path d="M35.7558,452.0841 C35.2928,491.9521 36.4271,565.5661 48.5,626.9531 C52.6711,648.1621 61.3227,671.5491 67.5,686.7021 " fill="none" id="Glossar-Begriffsdefinition" style="stroke: #A80036; stroke-width: 1.0;"/><polygon fill="#A80036" points="35.9813,439.0081,31.8784,444.9382,35.7743,451.0063,39.8772,445.0762,35.9813,439.0081" style="stroke: #A80036; stroke-width: 1.0;"/><text fill="#000000" font-family="sans-serif" font-size="13" lengthAdjust="spacingAndGlyphs" textLength="8" x="26.541" y="458.9281">1</text><text fill="#000000" font-family="sans-serif" font-size="13" lengthAdjust="spacingAndGlyphs" textLength="23" x="38.6031" y="675.9058">1..*</text><!--link Begriffsdefinition to Seite--><path d="M74.2862,686.8401 C74.5633,650.2071 79.6323,559.1921 120.5,498.9531 C142.266,466.8701 182.476,444.4391 208.059,432.6321 " fill="none" id="Begriffsdefinition-Seite" style="stroke: #A80036; stroke-width: 1.0;"/><text fill="#000000" font-family="sans-serif" font-size="13" lengthAdjust="spacingAndGlyphs" textLength="8" x="75.5404" y="675.7811">1</text><text fill="#000000" font-family="sans-serif" font-size="13" lengthAdjust="spacingAndGlyphs" textLength="23" x="177.4157" y="430.4124">1..*</text><!--link Kapitel to Seite--><path d="M324.19,263.9291 C318.466,286.8461 308.73,319.1651 294.5,344.9531 C281.915,367.7611 262.064,390.2781 248.013,404.8081 " fill="none" id="Kapitel-Seite" style="stroke: #A80036; stroke-width: 1.0;"/><polygon fill="#A80036" points="327.24,251.0171,321.9679,255.937,324.4815,262.6958,329.7537,257.7759,327.24,251.0171" style="stroke: #A80036; stroke-width: 1.0;"/><text fill="#000000" font-family="sans-serif" font-size="13" lengthAdjust="spacingAndGlyphs" textLength="8" x="316.9259" y="270.9399">1</text><text fill="#000000" font-family="sans-serif" font-size="13" lengthAdjust="spacingAndGlyphs" textLength="23" x="257.2923" y="393.7385">1..*</text><!--link Kapitel to Übungsverzeichnis--><path d="M370.023,257.2601 C399.373,273.8261 438.714,296.0311 465.025,310.8811 " fill="none" id="Kapitel-Übungsverzeichnis" style="stroke: #A80036; stroke-width: 1.0;"/><polygon fill="#A80036" points="358.521,250.7681,361.7801,257.2007,368.9713,256.6665,365.7123,250.2339,358.521,250.7681" style="stroke: #A80036; stroke-width: 1.0;"/><text fill="#000000" font-family="sans-serif" font-size="13" lengthAdjust="spacingAndGlyphs" textLength="8" x="358.478" y="270.9165">1</text><text fill="#000000" font-family="sans-serif" font-size="13" lengthAdjust="spacingAndGlyphs" textLength="8" x="446.2677" y="299.8357">1</text><!--link Kapitel to Unterkapitel--><path d="M298.38,264.8021 C281.924,280.0941 262.532,298.1151 248.879,310.8031 " fill="none" id="Kapitel-Unterkapitel" style="stroke: #A80036; stroke-width: 1.0;"/><polygon fill="none" points="293.84,259.4651,313.256,250.9781,303.37,269.7211,293.84,259.4651" style="stroke: #A80036; stroke-width: 1.0;"/><text fill="#000000" font-family="sans-serif" font-size="13" lengthAdjust="spacingAndGlyphs" textLength="8" x="298.4845" y="270.8885">1</text><text fill="#000000" font-family="sans-serif" font-size="13" lengthAdjust="spacingAndGlyphs" textLength="23" x="227.7529" y="300.039">0..*</text><!--link Unterkapitel to Seite--><path d="M231.5,358.0901 C231.5,373.5331 231.5,391.9181 231.5,404.8031 " fill="none" id="Unterkapitel-Seite" style="stroke: #A80036; stroke-width: 1.0;"/><polygon fill="#A80036" points="231.5,344.9781,227.5,350.9781,231.5,356.9781,235.5,350.9781,231.5,344.9781" style="stroke: #A80036; stroke-width: 1.0;"/><text fill="#000000" font-family="sans-serif" font-size="13" lengthAdjust="spacingAndGlyphs" textLength="8" x="222.225" y="364.8885">1</text><text fill="#000000" font-family="sans-serif" font-size="13" lengthAdjust="spacingAndGlyphs" textLength="23" x="204.8344" y="394.039">1..*</text><!--link Seite to Text--><path d="M210.603,449.2891 C197.93,465.2611 182.165,485.1291 171.315,498.8031 " fill="none" id="Seite-Text" style="stroke: #A80036; stroke-width: 1.0;"/><polygon fill="#FFFFFF" points="218.784,438.9781,211.9211,441.1919,211.325,448.3783,218.1879,446.1645,218.784,438.9781" style="stroke: #A80036; stroke-width: 1.0;"/><text fill="#000000" font-family="sans-serif" font-size="13" lengthAdjust="spacingAndGlyphs" textLength="8" x="205.4558" y="458.8885">1</text><text fill="#000000" font-family="sans-serif" font-size="13" lengthAdjust="spacingAndGlyphs" textLength="8" x="166.1248" y="488.039">1</text><!--link Seite to Visualisierung--><path d="M264.609,446.5661 C287.58,462.9481 317.575,484.3401 337.855,498.8031 " fill="none" id="Seite-Visualisierung" style="stroke: #A80036; stroke-width: 1.0;"/><polygon fill="#FFFFFF" points="253.97,438.9781,256.5324,445.7186,263.7399,445.9459,261.1775,439.2054,253.97,438.9781" style="stroke: #A80036; stroke-width: 1.0;"/><text fill="#000000" font-family="sans-serif" font-size="13" lengthAdjust="spacingAndGlyphs" textLength="8" x="251.8573" y="458.8885">1</text><text fill="#000000" font-family="sans-serif" font-size="13" lengthAdjust="spacingAndGlyphs" textLength="23" x="303.9713" y="488.039">1..*</text><!--link Text to Verweis--><path d="M158.5,546.0901 C158.5,561.5331 158.5,579.9181 158.5,592.8031 " fill="none" id="Text-Verweis" style="stroke: #A80036; stroke-width: 1.0;"/><polygon fill="#FFFFFF" points="158.5,532.9781,154.5,538.9781,158.5,544.9781,162.5,538.9781,158.5,532.9781" style="stroke: #A80036; stroke-width: 1.0;"/><text fill="#000000" font-family="sans-serif" font-size="13" lengthAdjust="spacingAndGlyphs" textLength="8" x="149.225" y="552.8885">1</text><text fill="#000000" font-family="sans-serif" font-size="13" lengthAdjust="spacingAndGlyphs" textLength="23" x="131.8344" y="582.039">1..*</text><!--link Verweis to Seite--><path d="M167.094,592.9371 C175.049,577.7531 186.909,554.1731 195.5,532.9531 C208.696,500.3581 220.673,460.9241 226.932,439.2321 " fill="none" id="Verweis-Seite" style="stroke: #A80036; stroke-width: 1.0;"/><text fill="#000000" font-family="sans-serif" font-size="13" lengthAdjust="spacingAndGlyphs" textLength="23" x="173.7501" y="581.9103">1..*</text><text fill="#000000" font-family="sans-serif" font-size="13" lengthAdjust="spacingAndGlyphs" textLength="23" x="221.544" y="458.9127">1..*</text><!--link Verweis to Begriffsdefinition--><path d="M143.868,626.9781 C128.545,643.7611 104.6121,669.9731 89.2459,686.8031 " fill="none" id="Verweis-Begriffsdefinition" style="stroke: #A80036; stroke-width: 1.0;"/><text fill="#000000" font-family="sans-serif" font-size="13" lengthAdjust="spacingAndGlyphs" textLength="8" x="129.9291" y="646.8885">1</text><text fill="#000000" font-family="sans-serif" font-size="13" lengthAdjust="spacingAndGlyphs" textLength="8" x="84.6712" y="676.039">1</text><!--link Verweis to Übung--><path d="M189.581,621.9041 C195.179,623.7071 200.987,625.4691 206.5,626.9531 C331.532,660.6131 483.943,687.8661 545.615,698.3341 " fill="none" id="Verweis-Übung" style="stroke: #A80036; stroke-width: 1.0;"/><text fill="#000000" font-family="sans-serif" font-size="13" lengthAdjust="spacingAndGlyphs" textLength="8" x="197.6935" y="620.0193">1</text><text fill="#000000" font-family="sans-serif" font-size="13" lengthAdjust="spacingAndGlyphs" textLength="8" x="529.843" y="692.2233">1</text><!--link Visualisierung to Grafik--><path d="M369.74,552.3711 C373.377,566.3141 377.371,581.6271 380.287,592.8031 " fill="none" id="Visualisierung-Grafik" style="stroke: #A80036; stroke-width: 1.0;"/><polygon fill="none" points="362.956,554.0981,364.68,532.9781,376.502,550.5641,362.956,554.0981" style="stroke: #A80036; stroke-width: 1.0;"/><text fill="#000000" font-family="sans-serif" font-size="13" lengthAdjust="spacingAndGlyphs" textLength="8" x="356.7374" y="552.8885">1</text><text fill="#000000" font-family="sans-serif" font-size="13" lengthAdjust="spacingAndGlyphs" textLength="8" x="369.6691" y="582.039">1</text><!--link Visualisierung to Animation--><path d="M397.89,545.1491 C418.618,560.7801 443.648,579.6551 461.083,592.8031 " fill="none" id="Visualisierung-Animation" style="stroke: #A80036; stroke-width: 1.0;"/><polygon fill="none" points="393.505,550.6091,381.751,532.9781,401.934,539.4311,393.505,550.6091" style="stroke: #A80036; stroke-width: 1.0;"/><text fill="#000000" font-family="sans-serif" font-size="13" lengthAdjust="spacingAndGlyphs" textLength="8" x="379.2498" y="552.8885">1</text><text fill="#000000" font-family="sans-serif" font-size="13" lengthAdjust="spacingAndGlyphs" textLength="8" x="444.9813" y="582.039">1</text><!--link Visualisierung to RollOverGrafik--><path d="M331.482,547.9951 C317.433,563.0241 301.15,580.4431 289.597,592.8031 " fill="none" id="Visualisierung-RollOverGrafik" style="stroke: #A80036; stroke-width: 1.0;"/><polygon fill="none" points="326.749,542.8091,345.52,532.9781,336.976,552.3691,326.749,542.8091" style="stroke: #A80036; stroke-width: 1.0;"/><text fill="#000000" font-family="sans-serif" font-size="13" lengthAdjust="spacingAndGlyphs" textLength="8" x="331.4701" y="552.8885">1</text><text fill="#000000" font-family="sans-serif" font-size="13" lengthAdjust="spacingAndGlyphs" textLength="8" x="285.1342" y="582.039">1</text><!--link Übungsverzeichnis to Übung--><path d="M499.679,357.8391 C515.622,432.3751 557.762,629.3761 570.075,686.9431 " fill="none" id="Übungsverzeichnis-Übung" style="stroke: #A80036; stroke-width: 1.0;"/><polygon fill="#A80036" points="496.938,345.0231,494.2811,351.7269,499.4474,356.7578,502.1043,350.054,496.938,345.0231" style="stroke: #A80036; stroke-width: 1.0;"/><text fill="#000000" font-family="sans-serif" font-size="13" lengthAdjust="spacingAndGlyphs" textLength="8" x="488.7589" y="364.9479">1</text><text fill="#000000" font-family="sans-serif" font-size="13" lengthAdjust="spacingAndGlyphs" textLength="23" x="542.1311" y="675.9183">1..*</text><!--
@startuml
title Analysemodell "Multimediales Lehrmodul"

object Lehrmodul

object Lehrtext
object Kapitel
object Unterkapitel
object Übungsverzeichnis

object Seite
object Text
object Visualisierung
object Grafik
object Animation
object RollOverGrafik
object Verweis

object Glossar
object Begriffsdefinition

object Informationsmaterial

object Übungsteil

object Übung
object Selbsttest
object Einsendeübung
object Lösung

Lehrmodul "1" *- - "1" Lehrtext
Lehrmodul "1" *- - "1" Informationsmaterial
Lehrmodul "1" *- - "1" Übungsteil

Übungsteil "1" *- - "1..*" Übung
Übungsteil "1" *- - "1..*" Lösung
Übung "1" <|- - "1" Einsendeübung
Übung "1" <|- - "1" Selbsttest
Lösung "1" - - "1" Selbsttest

Lehrtext "1" *- - "1..*" Kapitel
Lehrtext "1" *- - "1" Glossar
Glossar "1" *- - "1..*" Begriffsdefinition
Begriffsdefinition "1" - - "1..*" Seite

Kapitel "1" *- - "1..*" Seite
Kapitel "1" *- - "1" Übungsverzeichnis
Kapitel "1" <|- - "0..*" Unterkapitel
Unterkapitel "1" *- - "1..*" Seite

Seite "1" o- - "1" Text
Seite "1" o- - "1..*" Visualisierung
Text "1" o- - "1..*" Verweis
Verweis "1..*" - - "1..*" Seite
Verweis "1" - - "1" Begriffsdefinition
Verweis "1" - - "1" Übung

Visualisierung "1" <|- - "1" Grafik
Visualisierung "1" <|- - "1" Animation
Visualisierung "1" <|- - "1" RollOverGrafik

Übungsverzeichnis "1" *- - "1..*" Übung
@enduml

PlantUML version 1.2018.04beta7(Unknown compile time)
(GPL source distribution)
Java Runtime: Java(TM) SE Runtime Environment
JVM: Java HotSpot(TM) 64-Bit Server VM
Java Version: 1.7.0_25-b15
Operating System: Linux
Default Encoding: UTF-8
Language: en
Country: US
--></g></svg>