<?xml version="1.0" encoding="UTF-8" standalone="no"?><svg xmlns="http://www.w3.org/2000/svg" xmlns:xlink="http://www.w3.org/1999/xlink" contentScriptType="application/ecmascript" contentStyleType="text/css" height="500px" preserveAspectRatio="none" style="width:1308px;height:500px;" version="1.1" viewBox="0 0 1308 500" width="1308px" zoomAndPan="magnify"><defs><filter height="300%" id="f156vzq0piiepf" width="300%" x="-1" y="-1"><feGaussianBlur result="blurOut" stdDeviation="2.0"/><feColorMatrix in="blurOut" result="blurOut2" type="matrix" values="0 0 0 0 0 0 0 0 0 0 0 0 0 0 0 0 0 0 .4 0"/><feOffset dx="4.0" dy="4.0" in="blurOut2" result="blurOut3"/><feBlend in="SourceGraphic" in2="blurOut3" mode="normal"/></filter></defs><g><text fill="#000000" font-family="sans-serif" font-size="18" lengthAdjust="spacingAndGlyphs" textLength="256" x="530" y="16.708">Spedition - Klassendiagramm</text><rect fill="#FEFECE" filter="url(#f156vzq0piiepf)" height="33.9688" style="stroke: #A80036; stroke-width: 1.5;" width="73" x="609.5" y="28.9531"/><text fill="#000000" font-family="sans-serif" font-size="12" lengthAdjust="spacingAndGlyphs" textLength="59" x="616.5" y="42.0918">Spedition</text><line style="stroke: #A80036; stroke-width: 1.5;" x1="610.5" x2="681.5" y1="46.9219" y2="46.9219"/><rect fill="#FEFECE" filter="url(#f156vzq0piiepf)" height="33.9688" style="stroke: #A80036; stroke-width: 1.5;" width="55" x="496.5" y="353.9531"/><text fill="#000000" font-family="sans-serif" font-size="12" lengthAdjust="spacingAndGlyphs" textLength="41" x="503.5" y="367.0918">Fahrer</text><line style="stroke: #A80036; stroke-width: 1.5;" x1="497.5" x2="550.5" y1="371.9219" y2="371.9219"/><rect fill="#FEFECE" filter="url(#f156vzq0piiepf)" height="33.9688" style="stroke: #A80036; stroke-width: 1.5;" width="70" x="378" y="123.9531"/><text fill="#000000" font-family="sans-serif" font-size="12" lengthAdjust="spacingAndGlyphs" textLength="56" x="385" y="137.0918">Fuhrpark</text><line style="stroke: #A80036; stroke-width: 1.5;" x1="379" x2="447" y1="141.9219" y2="141.9219"/><rect fill="#FEFECE" filter="url(#f156vzq0piiepf)" height="33.9688" style="stroke: #A80036; stroke-width: 1.5;" width="121" x="834.5" y="218.9531"/><text fill="#000000" font-family="sans-serif" font-size="12" lengthAdjust="spacingAndGlyphs" textLength="107" x="841.5" y="232.0918">Transportauftrag</text><line style="stroke: #A80036; stroke-width: 1.5;" x1="835.5" x2="954.5" y1="236.9219" y2="236.9219"/><rect fill="#FEFECE" filter="url(#f156vzq0piiepf)" height="33.9688" style="stroke: #A80036; stroke-width: 1.5;" width="97" x="1200.5" y="353.9531"/><text fill="#000000" font-family="sans-serif" font-size="12" lengthAdjust="spacingAndGlyphs" textLength="83" x="1207.5" y="367.0918">Auftraggeber</text><line style="stroke: #A80036; stroke-width: 1.5;" x1="1201.5" x2="1296.5" y1="371.9219" y2="371.9219"/><rect fill="#FEFECE" filter="url(#f156vzq0piiepf)" height="33.9688" style="stroke: #A80036; stroke-width: 1.5;" width="90" x="971" y="353.9531"/><text fill="#000000" font-family="sans-serif" font-size="12" lengthAdjust="spacingAndGlyphs" textLength="76" x="978" y="367.0918">Empfaenger</text><line style="stroke: #A80036; stroke-width: 1.5;" x1="972" x2="1060" y1="371.9219" y2="371.9219"/><rect fill="#FEFECE" filter="url(#f156vzq0piiepf)" height="33.9688" style="stroke: #A80036; stroke-width: 1.5;" width="69" x="1096.5" y="353.9531"/><text fill="#000000" font-family="sans-serif" font-size="12" lengthAdjust="spacingAndGlyphs" textLength="55" x="1103.5" y="367.0918">Lieferant</text><line style="stroke: #A80036; stroke-width: 1.5;" x1="1097.5" x2="1164.5" y1="371.9219" y2="371.9219"/><rect fill="#FEFECE" filter="url(#f156vzq0piiepf)" height="33.9688" style="stroke: #A80036; stroke-width: 1.5;" width="132" x="1002" y="218.9531"/><text fill="#000000" font-family="sans-serif" font-size="12" lengthAdjust="spacingAndGlyphs" textLength="118" x="1009" y="232.0918">Geschaeftspartner</text><line style="stroke: #A80036; stroke-width: 1.5;" x1="1003" x2="1133" y1="236.9219" y2="236.9219"/><rect fill="#FEFECE" filter="url(#f156vzq0piiepf)" height="33.9688" style="stroke: #A80036; stroke-width: 1.5;" width="38" x="384" y="218.9531"/><text fill="#000000" font-family="sans-serif" font-size="12" lengthAdjust="spacingAndGlyphs" textLength="24" x="391" y="232.0918">LKW</text><line style="stroke: #A80036; stroke-width: 1.5;" x1="385" x2="421" y1="236.9219" y2="236.9219"/><rect fill="#FEFECE" filter="url(#f156vzq0piiepf)" height="33.9688" style="stroke: #A80036; stroke-width: 1.5;" width="48" x="550" y="455.9531"/><text fill="#000000" font-family="sans-serif" font-size="12" lengthAdjust="spacingAndGlyphs" textLength="34" x="557" y="469.0918">Team</text><line style="stroke: #A80036; stroke-width: 1.5;" x1="551" x2="597" y1="473.9219" y2="473.9219"/><rect fill="#FEFECE" filter="url(#f156vzq0piiepf)" height="33.9688" style="stroke: #A80036; stroke-width: 1.5;" width="42" x="630" y="123.9531"/><text fill="#000000" font-family="sans-serif" font-size="12" lengthAdjust="spacingAndGlyphs" textLength="28" x="637" y="137.0918">Tour</text><line style="stroke: #A80036; stroke-width: 1.5;" x1="631" x2="671" y1="141.9219" y2="141.9219"/><rect fill="#FEFECE" filter="url(#f156vzq0piiepf)" height="33.9688" style="stroke: #A80036; stroke-width: 1.5;" width="80" x="633" y="282.9531"/><text fill="#000000" font-family="sans-serif" font-size="12" lengthAdjust="spacingAndGlyphs" textLength="66" x="640" y="296.0918">LangeTour</text><line style="stroke: #A80036; stroke-width: 1.5;" x1="634" x2="712" y1="300.9219" y2="300.9219"/><!--class Gut--><rect fill="#FEFECE" filter="url(#f156vzq0piiepf)" height="48" id="Gut" style="stroke: #A80036; stroke-width: 1.5;" width="54" x="658" y="346.9531"/><ellipse cx="673" cy="362.9531" fill="#ADD1B2" rx="11" ry="11" style="stroke: #A80036; stroke-width: 1.0;"/><path d="M675.3438,358.625 L675.5156,358.7031 C675.7344,358.3906 675.9375,358.2969 676.2344,358.2969 C676.5313,358.2969 676.8125,358.4375 676.9688,358.7031 C677.0625,358.8594 677.0781,358.9844 677.0781,359.4219 L677.0781,360.8438 C677.0781,361.2656 677.0469,361.4531 676.9375,361.6094 C676.7656,361.8281 676.5,361.9688 676.2344,361.9688 C676.0156,361.9688 675.7813,361.8594 675.6406,361.7188 C675.5,361.5938 675.4688,361.4688 675.4063,361.0625 C675.3125,360.6563 675.1406,360.4375 674.6563,360.1563 C674.1875,359.9063 673.5781,359.75 673,359.75 C671.2656,359.75 670.0156,361.0625 670.0156,362.8438 L670.0156,363.9375 C670.0156,365.6406 671.3125,366.7344 673.3594,366.7344 C674.125,366.7344 674.8125,366.6094 675.2344,366.3438 C675.4219,366.25 675.4219,366.25 675.875,365.7656 C676.0625,365.5781 676.2656,365.5 676.4844,365.5 C676.9531,365.5 677.3438,365.8906 677.3438,366.3438 C677.3438,366.7344 677.0156,367.1875 676.4375,367.5938 C675.6875,368.1406 674.5313,368.4375 673.3125,368.4375 C670.4219,368.4375 668.3125,366.5469 668.3125,363.9688 L668.3125,362.8438 C668.3125,360.125 670.3125,358.0469 672.9375,358.0469 C673.8125,358.0469 674.4063,358.1875 675.3438,358.625 Z "/><text fill="#000000" font-family="sans-serif" font-size="12" lengthAdjust="spacingAndGlyphs" textLength="22" x="687" y="367.1074">Gut</text><line style="stroke: #A80036; stroke-width: 1.5;" x1="659" x2="711" y1="378.9531" y2="378.9531"/><line style="stroke: #A80036; stroke-width: 1.5;" x1="659" x2="711" y1="386.9531" y2="386.9531"/><!--class Strecke--><rect fill="#FEFECE" filter="url(#f156vzq0piiepf)" height="48" id="Strecke" style="stroke: #A80036; stroke-width: 1.5;" width="80" x="747" y="346.9531"/><ellipse cx="762" cy="362.9531" fill="#ADD1B2" rx="11" ry="11" style="stroke: #A80036; stroke-width: 1.0;"/><path d="M764.3438,358.625 L764.5156,358.7031 C764.7344,358.3906 764.9375,358.2969 765.2344,358.2969 C765.5313,358.2969 765.8125,358.4375 765.9688,358.7031 C766.0625,358.8594 766.0781,358.9844 766.0781,359.4219 L766.0781,360.8438 C766.0781,361.2656 766.0469,361.4531 765.9375,361.6094 C765.7656,361.8281 765.5,361.9688 765.2344,361.9688 C765.0156,361.9688 764.7813,361.8594 764.6406,361.7188 C764.5,361.5938 764.4688,361.4688 764.4063,361.0625 C764.3125,360.6563 764.1406,360.4375 763.6563,360.1563 C763.1875,359.9063 762.5781,359.75 762,359.75 C760.2656,359.75 759.0156,361.0625 759.0156,362.8438 L759.0156,363.9375 C759.0156,365.6406 760.3125,366.7344 762.3594,366.7344 C763.125,366.7344 763.8125,366.6094 764.2344,366.3438 C764.4219,366.25 764.4219,366.25 764.875,365.7656 C765.0625,365.5781 765.2656,365.5 765.4844,365.5 C765.9531,365.5 766.3438,365.8906 766.3438,366.3438 C766.3438,366.7344 766.0156,367.1875 765.4375,367.5938 C764.6875,368.1406 763.5313,368.4375 762.3125,368.4375 C759.4219,368.4375 757.3125,366.5469 757.3125,363.9688 L757.3125,362.8438 C757.3125,360.125 759.3125,358.0469 761.9375,358.0469 C762.8125,358.0469 763.4063,358.1875 764.3438,358.625 Z "/><text fill="#000000" font-family="sans-serif" font-size="12" lengthAdjust="spacingAndGlyphs" textLength="48" x="776" y="367.1074">Strecke</text><line style="stroke: #A80036; stroke-width: 1.5;" x1="748" x2="826" y1="378.9531" y2="378.9531"/><line style="stroke: #A80036; stroke-width: 1.5;" x1="748" x2="826" y1="386.9531" y2="386.9531"/><!--class Termin--><rect fill="#FEFECE" filter="url(#f156vzq0piiepf)" height="48" id="Termin" style="stroke: #A80036; stroke-width: 1.5;" width="74" x="862" y="346.9531"/><ellipse cx="877" cy="362.9531" fill="#ADD1B2" rx="11" ry="11" style="stroke: #A80036; stroke-width: 1.0;"/><path d="M879.3438,358.625 L879.5156,358.7031 C879.7344,358.3906 879.9375,358.2969 880.2344,358.2969 C880.5313,358.2969 880.8125,358.4375 880.9688,358.7031 C881.0625,358.8594 881.0781,358.9844 881.0781,359.4219 L881.0781,360.8438 C881.0781,361.2656 881.0469,361.4531 880.9375,361.6094 C880.7656,361.8281 880.5,361.9688 880.2344,361.9688 C880.0156,361.9688 879.7813,361.8594 879.6406,361.7188 C879.5,361.5938 879.4688,361.4688 879.4063,361.0625 C879.3125,360.6563 879.1406,360.4375 878.6563,360.1563 C878.1875,359.9063 877.5781,359.75 877,359.75 C875.2656,359.75 874.0156,361.0625 874.0156,362.8438 L874.0156,363.9375 C874.0156,365.6406 875.3125,366.7344 877.3594,366.7344 C878.125,366.7344 878.8125,366.6094 879.2344,366.3438 C879.4219,366.25 879.4219,366.25 879.875,365.7656 C880.0625,365.5781 880.2656,365.5 880.4844,365.5 C880.9531,365.5 881.3438,365.8906 881.3438,366.3438 C881.3438,366.7344 881.0156,367.1875 880.4375,367.5938 C879.6875,368.1406 878.5313,368.4375 877.3125,368.4375 C874.4219,368.4375 872.3125,366.5469 872.3125,363.9688 L872.3125,362.8438 C872.3125,360.125 874.3125,358.0469 876.9375,358.0469 C877.8125,358.0469 878.4063,358.1875 879.3438,358.625 Z "/><text fill="#000000" font-family="sans-serif" font-size="12" lengthAdjust="spacingAndGlyphs" textLength="42" x="891" y="367.1074">Termin</text><line style="stroke: #A80036; stroke-width: 1.5;" x1="863" x2="935" y1="378.9531" y2="378.9531"/><line style="stroke: #A80036; stroke-width: 1.5;" x1="863" x2="935" y1="386.9531" y2="386.9531"/><!--class StueckgutLKW--><rect fill="#FEFECE" filter="url(#f156vzq0piiepf)" height="48" id="StueckgutLKW" style="stroke: #A80036; stroke-width: 1.5;" width="120" x="6" y="346.9531"/><ellipse cx="21" cy="362.9531" fill="#ADD1B2" rx="11" ry="11" style="stroke: #A80036; stroke-width: 1.0;"/><path d="M23.3438,358.625 L23.5156,358.7031 C23.7344,358.3906 23.9375,358.2969 24.2344,358.2969 C24.5313,358.2969 24.8125,358.4375 24.9688,358.7031 C25.0625,358.8594 25.0781,358.9844 25.0781,359.4219 L25.0781,360.8438 C25.0781,361.2656 25.0469,361.4531 24.9375,361.6094 C24.7656,361.8281 24.5,361.9688 24.2344,361.9688 C24.0156,361.9688 23.7813,361.8594 23.6406,361.7188 C23.5,361.5938 23.4688,361.4688 23.4063,361.0625 C23.3125,360.6563 23.1406,360.4375 22.6563,360.1563 C22.1875,359.9063 21.5781,359.75 21,359.75 C19.2656,359.75 18.0156,361.0625 18.0156,362.8438 L18.0156,363.9375 C18.0156,365.6406 19.3125,366.7344 21.3594,366.7344 C22.125,366.7344 22.8125,366.6094 23.2344,366.3438 C23.4219,366.25 23.4219,366.25 23.875,365.7656 C24.0625,365.5781 24.2656,365.5 24.4844,365.5 C24.9531,365.5 25.3438,365.8906 25.3438,366.3438 C25.3438,366.7344 25.0156,367.1875 24.4375,367.5938 C23.6875,368.1406 22.5313,368.4375 21.3125,368.4375 C18.4219,368.4375 16.3125,366.5469 16.3125,363.9688 L16.3125,362.8438 C16.3125,360.125 18.3125,358.0469 20.9375,358.0469 C21.8125,358.0469 22.4063,358.1875 23.3438,358.625 Z "/><text fill="#000000" font-family="sans-serif" font-size="12" lengthAdjust="spacingAndGlyphs" textLength="88" x="35" y="367.1074">StueckgutLKW</text><line style="stroke: #A80036; stroke-width: 1.5;" x1="7" x2="125" y1="378.9531" y2="378.9531"/><line style="stroke: #A80036; stroke-width: 1.5;" x1="7" x2="125" y1="386.9531" y2="386.9531"/><!--class SchuettgutLKW--><rect fill="#FEFECE" filter="url(#f156vzq0piiepf)" height="48" id="SchuettgutLKW" style="stroke: #A80036; stroke-width: 1.5;" width="126" x="161" y="346.9531"/><ellipse cx="176" cy="362.9531" fill="#ADD1B2" rx="11" ry="11" style="stroke: #A80036; stroke-width: 1.0;"/><path d="M178.3438,358.625 L178.5156,358.7031 C178.7344,358.3906 178.9375,358.2969 179.2344,358.2969 C179.5313,358.2969 179.8125,358.4375 179.9688,358.7031 C180.0625,358.8594 180.0781,358.9844 180.0781,359.4219 L180.0781,360.8438 C180.0781,361.2656 180.0469,361.4531 179.9375,361.6094 C179.7656,361.8281 179.5,361.9688 179.2344,361.9688 C179.0156,361.9688 178.7813,361.8594 178.6406,361.7188 C178.5,361.5938 178.4688,361.4688 178.4063,361.0625 C178.3125,360.6563 178.1406,360.4375 177.6563,360.1563 C177.1875,359.9063 176.5781,359.75 176,359.75 C174.2656,359.75 173.0156,361.0625 173.0156,362.8438 L173.0156,363.9375 C173.0156,365.6406 174.3125,366.7344 176.3594,366.7344 C177.125,366.7344 177.8125,366.6094 178.2344,366.3438 C178.4219,366.25 178.4219,366.25 178.875,365.7656 C179.0625,365.5781 179.2656,365.5 179.4844,365.5 C179.9531,365.5 180.3438,365.8906 180.3438,366.3438 C180.3438,366.7344 180.0156,367.1875 179.4375,367.5938 C178.6875,368.1406 177.5313,368.4375 176.3125,368.4375 C173.4219,368.4375 171.3125,366.5469 171.3125,363.9688 L171.3125,362.8438 C171.3125,360.125 173.3125,358.0469 175.9375,358.0469 C176.8125,358.0469 177.4063,358.1875 178.3438,358.625 Z "/><text fill="#000000" font-family="sans-serif" font-size="12" lengthAdjust="spacingAndGlyphs" textLength="94" x="190" y="367.1074">SchuettgutLKW</text><line style="stroke: #A80036; stroke-width: 1.5;" x1="162" x2="286" y1="378.9531" y2="378.9531"/><line style="stroke: #A80036; stroke-width: 1.5;" x1="162" x2="286" y1="386.9531" y2="386.9531"/><!--class FluessiggutLKW--><rect fill="#FEFECE" filter="url(#f156vzq0piiepf)" height="48" id="FluessiggutLKW" style="stroke: #A80036; stroke-width: 1.5;" width="128" x="322" y="346.9531"/><ellipse cx="337" cy="362.9531" fill="#ADD1B2" rx="11" ry="11" style="stroke: #A80036; stroke-width: 1.0;"/><path d="M339.3438,358.625 L339.5156,358.7031 C339.7344,358.3906 339.9375,358.2969 340.2344,358.2969 C340.5313,358.2969 340.8125,358.4375 340.9688,358.7031 C341.0625,358.8594 341.0781,358.9844 341.0781,359.4219 L341.0781,360.8438 C341.0781,361.2656 341.0469,361.4531 340.9375,361.6094 C340.7656,361.8281 340.5,361.9688 340.2344,361.9688 C340.0156,361.9688 339.7813,361.8594 339.6406,361.7188 C339.5,361.5938 339.4688,361.4688 339.4063,361.0625 C339.3125,360.6563 339.1406,360.4375 338.6563,360.1563 C338.1875,359.9063 337.5781,359.75 337,359.75 C335.2656,359.75 334.0156,361.0625 334.0156,362.8438 L334.0156,363.9375 C334.0156,365.6406 335.3125,366.7344 337.3594,366.7344 C338.125,366.7344 338.8125,366.6094 339.2344,366.3438 C339.4219,366.25 339.4219,366.25 339.875,365.7656 C340.0625,365.5781 340.2656,365.5 340.4844,365.5 C340.9531,365.5 341.3438,365.8906 341.3438,366.3438 C341.3438,366.7344 341.0156,367.1875 340.4375,367.5938 C339.6875,368.1406 338.5313,368.4375 337.3125,368.4375 C334.4219,368.4375 332.3125,366.5469 332.3125,363.9688 L332.3125,362.8438 C332.3125,360.125 334.3125,358.0469 336.9375,358.0469 C337.8125,358.0469 338.4063,358.1875 339.3438,358.625 Z "/><text fill="#000000" font-family="sans-serif" font-size="12" lengthAdjust="spacingAndGlyphs" textLength="96" x="351" y="367.1074">FluessiggutLKW</text><line style="stroke: #A80036; stroke-width: 1.5;" x1="323" x2="449" y1="378.9531" y2="378.9531"/><line style="stroke: #A80036; stroke-width: 1.5;" x1="323" x2="449" y1="386.9531" y2="386.9531"/><!--link Spedition to Fahrer--><path d="M632.944,75.1941 C626.403,89.6681 618.51,107.6381 612,123.9531 C577.874,209.4741 542.535,314.0491 529.366,353.6841 " fill="none" id="Spedition-Fahrer" style="stroke: #A80036; stroke-width: 1.0;"/><polygon fill="#A80036" points="638.493,63.0331,632.3635,66.8316,633.5123,73.9506,639.6418,70.1521,638.493,63.0331" style="stroke: #A80036; stroke-width: 1.0;"/><text fill="#000000" font-family="sans-serif" font-size="13" lengthAdjust="spacingAndGlyphs" textLength="8" x="626.8251" y="82.961">1</text><text fill="#000000" font-family="sans-serif" font-size="13" lengthAdjust="spacingAndGlyphs" textLength="36" x="489.3389" y="342.882">many</text><!--link Spedition to Fuhrpark--><path d="M596.979,61.4851 C570.336,69.8331 536.999,81.0131 508,92.9531 C485.71,102.1311 461.356,114.2231 442.887,123.8431 " fill="none" id="Spedition-Fuhrpark" style="stroke: #A80036; stroke-width: 1.0;"/><polygon fill="#A80036" points="609.472,57.6231,602.5584,55.5732,598.0071,61.1665,604.9207,63.2165,609.472,57.6231" style="stroke: #A80036; stroke-width: 1.0;"/><text fill="#000000" font-family="sans-serif" font-size="13" lengthAdjust="spacingAndGlyphs" textLength="8" x="593.493" y="55.5271">1</text><text fill="#000000" font-family="sans-serif" font-size="13" lengthAdjust="spacingAndGlyphs" textLength="8" x="443.4621" y="112.7851">1</text><!--link Spedition to Geschaeftspartner--><path d="M693.884,68.2851 C779.213,106.2991 955.733,184.9391 1031.81,218.8321 " fill="none" id="Spedition-Geschaeftspartner" style="stroke: #A80036; stroke-width: 1.0;"/><polygon fill="#A80036" points="681.979,62.9821,685.8319,69.0776,692.9404,67.8655,689.0875,61.77,681.979,62.9821" style="stroke: #A80036; stroke-width: 1.0;"/><text fill="#000000" font-family="sans-serif" font-size="13" lengthAdjust="spacingAndGlyphs" textLength="8" x="684.1723" y="82.8938">1</text><text fill="#000000" font-family="sans-serif" font-size="13" lengthAdjust="spacingAndGlyphs" textLength="36" x="977.8622" y="207.7705">many</text><!--link Spedition to Transportauftrag--><path d="M677.725,70.9061 C729.18,109.7551 829.495,185.4961 873.47,218.6981 " fill="none" id="Spedition-Transportauftrag" style="stroke: #A80036; stroke-width: 1.0;"/><polygon fill="#A80036" points="667.23,62.9821,669.6082,69.7898,676.8068,70.2129,674.4287,63.4052,667.23,62.9821" style="stroke: #A80036; stroke-width: 1.0;"/><text fill="#000000" font-family="sans-serif" font-size="13" lengthAdjust="spacingAndGlyphs" textLength="8" x="664.7221" y="82.8938">1</text><text fill="#000000" font-family="sans-serif" font-size="13" lengthAdjust="spacingAndGlyphs" textLength="36" x="824.8698" y="207.9005">many</text><!--link Geschaeftspartner to Auftraggeber--><path d="M1106.28,265.0781 C1142.99,292.0591 1197.15,331.8541 1227.09,353.8531 " fill="none" id="Geschaeftspartner-Auftraggeber" style="stroke: #A80036; stroke-width: 1.0;"/><polygon fill="none" points="1101.8,270.4801,1089.83,252.9961,1110.09,259.1981,1101.8,270.4801" style="stroke: #A80036; stroke-width: 1.0;"/><!--link Geschaeftspartner to Lieferant--><path d="M1084.2,271.1561 C1096.8,297.7541 1113.71,333.4541 1123.37,353.8531 " fill="none" id="Geschaeftspartner-Lieferant" style="stroke: #A80036; stroke-width: 1.0;"/><polygon fill="none" points="1077.83,274.0671,1075.6,252.9961,1090.49,268.0741,1077.83,274.0671" style="stroke: #A80036; stroke-width: 1.0;"/><!--link Geschaeftspartner to Empfaenger--><path d="M1054.32,271.9411 C1043.96,298.4521 1030.19,333.6541 1022.29,353.8531 " fill="none" id="Geschaeftspartner-Empfaenger" style="stroke: #A80036; stroke-width: 1.0;"/><polygon fill="none" points="1047.93,269.0741,1061.73,252.9961,1060.96,274.1721,1047.93,269.0741" style="stroke: #A80036; stroke-width: 1.0;"/><!--link Transportauftrag to Lieferant--><path d="M935.496,259.6391 C948.73,267.0611 963.496,275.3511 977,282.9531 C1020.88,307.6581 1071.74,336.4141 1102.63,353.8931 " fill="none" id="Transportauftrag-Lieferant" style="stroke: #A80036; stroke-width: 1.0;"/><polygon fill="#FFFFFF" points="923.853,253.1111,927.1304,259.5344,934.3201,258.9797,931.0427,252.5564,923.853,253.1111" style="stroke: #A80036; stroke-width: 1.0;"/><text fill="#000000" font-family="sans-serif" font-size="13" lengthAdjust="spacingAndGlyphs" textLength="36" x="915.0499" y="273.0639">many</text><text fill="#000000" font-family="sans-serif" font-size="13" lengthAdjust="spacingAndGlyphs" textLength="8" x="1083.9074" y="342.8517">1</text><!--link Transportauftrag to Empfaenger--><path d="M918.606,262.9001 C943.148,289.8751 980.793,331.2541 1001.353,353.8531 " fill="none" id="Transportauftrag-Empfaenger" style="stroke: #A80036; stroke-width: 1.0;"/><polygon fill="#FFFFFF" points="909.595,252.9961,910.6741,260.126,917.6706,261.8722,916.5915,254.7423,909.595,252.9961" style="stroke: #A80036; stroke-width: 1.0;"/><text fill="#000000" font-family="sans-serif" font-size="13" lengthAdjust="spacingAndGlyphs" textLength="36" x="872.5097" y="272.9122">many</text><text fill="#000000" font-family="sans-serif" font-size="13" lengthAdjust="spacingAndGlyphs" textLength="8" x="987.1762" y="342.7984">1</text><!--link Transportauftrag to Auftraggeber--><path d="M958.095,257.0851 C981.706,264.8551 1008.69,274.0151 1033,282.9531 C1095.99,306.1111 1168.11,335.8171 1211.04,353.8421 " fill="none" id="Transportauftrag-Auftraggeber" style="stroke: #A80036; stroke-width: 1.0;"/><polygon fill="#FFFFFF" points="945.727,253.0411,950.1868,258.7077,957.1328,256.7705,952.673,251.1039,945.727,253.0411" style="stroke: #A80036; stroke-width: 1.0;"/><text fill="#000000" font-family="sans-serif" font-size="13" lengthAdjust="spacingAndGlyphs" textLength="36" x="958.8698" y="273.0277">many</text><text fill="#000000" font-family="sans-serif" font-size="13" lengthAdjust="spacingAndGlyphs" textLength="8" x="1189.1408" y="342.7838">1</text><!--link Transportauftrag to Gut--><path d="M869.669,252.9961 C829.852,278.2141 752.954,326.9161 712.08,352.8021 " fill="none" id="Transportauftrag-Gut" style="stroke: #A80036; stroke-width: 1.0;"/><text fill="#000000" font-family="sans-serif" font-size="13" lengthAdjust="spacingAndGlyphs" textLength="36" x="819.8572" y="272.9122">many</text><text fill="#000000" font-family="sans-serif" font-size="13" lengthAdjust="spacingAndGlyphs" textLength="8" x="720.0443" y="343.313">1</text><!--link Transportauftrag to Strecke--><path d="M881.973,252.9961 C863.01,276.3481 827.694,319.8391 805.881,346.7021 " fill="none" id="Transportauftrag-Strecke" style="stroke: #A80036; stroke-width: 1.0;"/><text fill="#000000" font-family="sans-serif" font-size="13" lengthAdjust="spacingAndGlyphs" textLength="36" x="836.0831" y="272.9122">many</text><text fill="#000000" font-family="sans-serif" font-size="13" lengthAdjust="spacingAndGlyphs" textLength="8" x="801.5082" y="336.0459">1</text><!--link Transportauftrag to Termin--><path d="M895.482,252.9961 C896.185,276.3481 897.493,319.8391 898.301,346.7021 " fill="none" id="Transportauftrag-Termin" style="stroke: #A80036; stroke-width: 1.0;"/><text fill="#000000" font-family="sans-serif" font-size="13" lengthAdjust="spacingAndGlyphs" textLength="36" x="818.3147" y="272.6818">many</text><text fill="#000000" font-family="sans-serif" font-size="13" lengthAdjust="spacingAndGlyphs" textLength="8" x="889.1556" y="336.0459">1</text><!--link Tour to Transportauftrag--><path d="M684.412,154.6881 C728.137,171.3541 804.805,200.5761 852.583,218.7861 " fill="none" id="Tour-Transportauftrag" style="stroke: #A80036; stroke-width: 1.0;"/><polygon fill="#A80036" points="672.227,150.0431,676.4089,155.9178,683.4401,154.3171,679.2582,148.4424,672.227,150.0431" style="stroke: #A80036; stroke-width: 1.0;"/><text fill="#000000" font-family="sans-serif" font-size="13" lengthAdjust="spacingAndGlyphs" textLength="8" x="679.9528" y="147.6221">1</text><text fill="#000000" font-family="sans-serif" font-size="13" lengthAdjust="spacingAndGlyphs" textLength="36" x="797.3251" y="208.0166">many</text><!--link Tour to LKW--><path d="M617.544,154.4991 C564.787,174.2831 463.964,212.0921 422.029,227.8171 " fill="none" id="Tour-LKW" style="stroke: #A80036; stroke-width: 1.0;"/><polygon fill="#A80036" points="629.856,149.8821,622.8336,148.2433,618.6199,154.0952,625.6423,155.734,629.856,149.8821" style="stroke: #A80036; stroke-width: 1.0;"/><text fill="#000000" font-family="sans-serif" font-size="13" lengthAdjust="spacingAndGlyphs" textLength="36" x="585.7826" y="147.2607">many</text><text fill="#000000" font-family="sans-serif" font-size="13" lengthAdjust="spacingAndGlyphs" textLength="8" x="429.9452" y="219.5373">1</text><!--link Tour to Fahrer--><path d="M637.531,170.3061 C620.58,205.3821 590.034,266.6301 560,316.9531 C552.475,329.5611 543.139,343.2581 535.86,353.5691 " fill="none" id="Tour-Fahrer" style="stroke: #A80036; stroke-width: 1.0;"/><polygon fill="#A80036" points="643.333,158.2211,637.1305,161.8993,638.1401,169.0394,644.3426,165.3612,643.333,158.2211" style="stroke: #A80036; stroke-width: 1.0;"/><text fill="#000000" font-family="sans-serif" font-size="13" lengthAdjust="spacingAndGlyphs" textLength="36" x="599.4725" y="177.8983">many</text><text fill="#000000" font-family="sans-serif" font-size="13" lengthAdjust="spacingAndGlyphs" textLength="8" x="540.7171" y="343.0404">1</text><!--link Tour to LangeTour--><path d="M656.084,178.2311 C660.691,211.1111 667.27,258.0621 670.708,282.5961 " fill="none" id="Tour-LangeTour" style="stroke: #A80036; stroke-width: 1.0;"/><polygon fill="none" points="649.115,178.9411,653.272,158.1631,662.979,176.9981,649.115,178.9411" style="stroke: #A80036; stroke-width: 1.0;"/><!--link LangeTour to Team--><path d="M652.871,327.7151 C648.465,333.9221 643.943,340.5801 640,346.9531 C616.63,384.7271 593.314,431.5727 581.658,455.7794 " fill="none" id="LangeTour-Team" style="stroke: #A80036; stroke-width: 1.0;"/><polygon fill="#FFFFFF" points="660.526,317.1871,653.7622,319.6873,653.4686,326.8924,660.2324,324.3922,660.526,317.1871" style="stroke: #A80036; stroke-width: 1.0;"/><text fill="#000000" font-family="sans-serif" font-size="13" lengthAdjust="spacingAndGlyphs" textLength="36" x="613.9791" y="335.9492">many</text><text fill="#000000" font-family="sans-serif" font-size="13" lengthAdjust="spacingAndGlyphs" textLength="8" x="574.824" y="445.0077">1</text><!--link LKW to Fahrer--><path d="M407.128,266.2701 C410.668,282.6331 417.164,302.5561 429,316.9531 C438.355,328.3321 471.586,345.5241 496.12,357.2191 " fill="none" id="LKW-Fahrer" style="stroke: #A80036; stroke-width: 1.0;"/><polygon fill="#A80036" points="404.719,253.0361,401.8584,259.6556,406.8684,264.8421,409.729,258.2226,404.719,253.0361" style="stroke: #A80036; stroke-width: 1.0;"/><text fill="#000000" font-family="sans-serif" font-size="13" lengthAdjust="spacingAndGlyphs" textLength="77" x="430" y="304.52">Hauptfahrer</text><text fill="#000000" font-family="sans-serif" font-size="13" lengthAdjust="spacingAndGlyphs" textLength="8" x="395.9919" y="272.965">1</text><text fill="#000000" font-family="sans-serif" font-size="13" lengthAdjust="spacingAndGlyphs" textLength="8" x="480.3493" y="367.7865">1</text><!--link LKW to StueckgutLKW--><path d="M364.947,251.9711 C306.306,275.1141 193.416,319.6671 124.387,346.9101 " fill="none" id="LKW-StueckgutLKW" style="stroke: #A80036; stroke-width: 1.0;"/><polygon fill="none" points="362.742,245.3161,383.916,244.4851,367.882,258.3381,362.742,245.3161" style="stroke: #A80036; stroke-width: 1.0;"/><!--link LKW to SchuettgutLKW--><path d="M367.386,263.4151 C334.533,287.8251 286.248,323.7021 254.962,346.9471 " fill="none" id="LKW-SchuettgutLKW" style="stroke: #A80036; stroke-width: 1.0;"/><polygon fill="none" points="363.615,257.4961,383.844,251.1861,371.965,268.7331,363.615,257.4961" style="stroke: #A80036; stroke-width: 1.0;"/><!--link LKW to FluessiggutLKW--><path d="M397.397,272.9231 C396.908,276.3111 396.435,279.6951 396,282.9531 C393.123,304.5031 390.34,329.1241 388.443,346.6611 " fill="none" id="LKW-FluessiggutLKW" style="stroke: #A80036; stroke-width: 1.0;"/><polygon fill="none" points="390.481,271.8401,400.393,253.1121,404.324,273.9331,390.481,271.8401" style="stroke: #A80036; stroke-width: 1.0;"/><!--link Fahrer to Team--><path d="M532.033,388.0201 C539.578,403.1091 551.026,426.0051 560.06,444.0738 " fill="none" id="Fahrer-Team" style="stroke: #A80036; stroke-width: 1.0;"/><polygon fill="#A80036" points="565.987,455.9262,566.8813,448.7708,560.6202,445.1932,559.7259,452.3486,565.987,455.9262" style="stroke: #A80036; stroke-width: 1.0;"/><text fill="#000000" font-family="sans-serif" font-size="13" lengthAdjust="spacingAndGlyphs" textLength="24" x="506.7685" y="407.9439">0..2</text><text fill="#000000" font-family="sans-serif" font-size="13" lengthAdjust="spacingAndGlyphs" textLength="8" x="554.0077" y="444.8958">1</text><!--link Fuhrpark to LKW--><path d="M409.823,171.4951 C408.133,187.2121 406.121,205.9241 404.722,218.9391 " fill="none" id="Fuhrpark-LKW" style="stroke: #A80036; stroke-width: 1.0;"/><polygon fill="#A80036" points="411.258,158.1521,406.6394,163.69,409.9749,170.0833,414.5935,164.5454,411.258,158.1521" style="stroke: #A80036; stroke-width: 1.0;"/><text fill="#000000" font-family="sans-serif" font-size="13" lengthAdjust="spacingAndGlyphs" textLength="8" x="401.4277" y="178.118">1</text><text fill="#000000" font-family="sans-serif" font-size="13" lengthAdjust="spacingAndGlyphs" textLength="36" x="363.3299" y="207.9129">many</text><!--
@startuml
title Spedition - Klassendiagramm

object Spedition
object Fahrer
object Fuhrpark
object Transportauftrag

object Auftraggeber
object Empfaenger
object Lieferant
object Geschaeftspartner

object LKW
object Team
object Tour
object LangeTour

Spedition "1" *- - "many" Fahrer
Spedition "1" *- - "1" Fuhrpark
Spedition "1" *- - "many" Geschaeftspartner
Spedition "1" *- - "many" Transportauftrag

Geschaeftspartner <|- - Auftraggeber
Geschaeftspartner <|- - Lieferant
Geschaeftspartner <|- - Empfaenger

Transportauftrag "many" o- - "1" Lieferant
Transportauftrag "many" o- - "1" Empfaenger
Transportauftrag "many" o- - "1" Auftraggeber

Transportauftrag "many" - - "1" Gut
Transportauftrag "many" - - "1" Strecke
Transportauftrag "many" - - "1" Termin

Tour "1" *- - "many" Transportauftrag
Tour "many" *- - "1" LKW
Tour "many" *- - "1" Fahrer

Tour <|- - LangeTour
LangeTour "many" o- - "1" Team

LKW "1" *- - "1" Fahrer : Hauptfahrer
LKW <|- - StueckgutLKW
LKW <|- - SchuettgutLKW
LKW <|- - FluessiggutLKW

Fahrer "0..2" - -* "1" Team

Fuhrpark "1" *- - "many" LKW
@enduml

PlantUML version 1.2018.04beta7(Unknown compile time)
(GPL source distribution)
Java Runtime: Java(TM) SE Runtime Environment
JVM: Java HotSpot(TM) 64-Bit Server VM
Java Version: 1.7.0_25-b15
Operating System: Linux
Default Encoding: UTF-8
Language: en
Country: US
--></g></svg>